<?xml version="1.0" standalone="no"?>
  <!DOCTYPE svg PUBLIC "-//W3C//DTD SVG 1.1//EN" "http://www.w3.org/Graphics/SVG/1.1/DTD/svg11.dtd" >
  <svg>
  <metadata>
  Created by font-carrier
  </metadata>
  <defs>
  <font id="NexaScript-Light" horiz-adv-x="1753" vert-adv-y="1753" >
    <font-face
      
      font-family="Nexa Script Light"
      
      font-weight="400"
      
      font-stretch="normal"
      
      units-per-em="1000"
      
      ascent="905"
      
      descent="-295"
      
    />
      <missing-glyph />

      

      
      <glyph glyph-name="uni21" unicode="&#x21;" d="M101 179Q122 251 169 440.50Q216 630 227 670Q233 691 254.50 694.50Q276 698 293 687.50Q310 677 306 664Q280 577 233 403Q186 229 170 172Q165 155 146.50 152.50Q128 150 113 159Q98 168 101 179M129 9.50Q129 9.50 122 2.75Q115-4 97-4Q79-4 67 9.50Q55 23 56 42Q57 59 71 72.50Q85 86 104 86Q124 86 135 73Q146 60 145 41Q143 23 129 9.50Z"  horiz-adv-x="346" vert-adv-y="1000"  />

      
      <glyph glyph-name="uni22" unicode="&#x22;" d="M89 535Q86 525 72.50 521.50Q59 518 47.50 523.50Q36 529 39 542L68 671Q73 693 99 691Q123 690 125 672Q125 668 124 664L89 535M211 535Q208 525 194 521.50Q180 518 169 523.50Q158 529 161 542L190 671Q195 693 221 691Q245 690 247 672Q247 668 246 664L211 535Z"  horiz-adv-x="339" vert-adv-y="1000"  />

      
      <glyph glyph-name="uni23" unicode="&#x23;" d="M159 81Q154 61 124 63Q100 65 99 79Q98 81 99 83L142 243L70 243Q54 243 56 265Q62 289 80 292L155 292L184 398L110 398Q92 398 94.50 420.50Q97 443 115 446L119 447L197 447L237 591Q242 611 273 608Q299 605 298 591Q298 590 298 589L259 447L349 447L389 591Q392 604 408.50 607.50Q425 611 438.50 605Q452 599 450 589L411 447L483 447Q499 447 498 426Q496 404 479 399L473 398L397 398L369 292L444 292Q463 292 460.50 269.50Q458 247 440 244Q438 243 436 243L355 243L311 81Q306 61 276 64Q252 65 251 79Q250 81 251 83L294 243L203 243L159 81M217 292L307 292L336 398L245 398L217 292Z"  horiz-adv-x="564" vert-adv-y="1000"  />

      
      <glyph glyph-name="uni24" unicode="&#x24;" d="M412 686Q401 647 397 632Q451 618 478 582.50Q505 547 503 504Q503 492 488.50 484.50Q474 477 458.50 479.50Q443 482 442 494Q440 555 380 569Q374 545 355 470.50Q336 396 325 354Q329 350 342 338.50Q355 327 359.50 322.50Q364 318 375.50 306.50Q387 295 392 289.50Q397 284 406 272.50Q415 261 419 253.50Q423 246 429 234.50Q435 223 437 213Q439 203 441 191Q443 179 442 167Q438 85 385 37.50Q332-10 232-9Q229-19 223.50-41.50Q218-64 215-75Q211-90 197-93Q183-96 172-87.50Q161-79 165-66Q165-65 171-41.50Q177-18 181-5Q97 11 61.50 73Q26 135 43 205Q45 217 61 218.50Q77 220 91.50 212Q106 204 106 191Q102 146 126.50 109.50Q151 73 198 62Q209 105 262 314Q229 342 210 363.50Q191 385 175.50 419Q160 453 163 490Q168 565 218 603Q268 641 345 639L357 687Q359 702 373.50 705Q388 708 401 701.50Q414 695 412 686M329 578Q293 579 270 562Q247 545 241 516Q234 487 244.50 454Q255 421 282 395Q290 425 305.50 486.50Q321 548 329 578M305 276Q267 128 248 56Q315 56 346.50 97.50Q378 139 365 191.50Q352 244 305 276Z"  horiz-adv-x="543" vert-adv-y="1000"  />

      
      <glyph glyph-name="uni25" unicode="&#x25;" d="M136 17Q127 7 110.50 7.50Q94 8 81.50 19Q69 30 77 42L420 610Q438 638 469 625Q492 615 489 598Q488 594 486 591L136 17M143 410Q97 410 73 442Q49 474 59 517Q68 559 103 585.50Q138 612 184 612Q227 612 252.50 582Q278 552 269 509Q260 466 223.50 438Q187 410 143 410M152 463Q173 463 190.50 477.50Q208 492 212 512Q216 531 205 544.50Q194 558 174 558Q153 558 136.50 544.50Q120 531 115 511Q110 491 120 477Q130 463 152 463M381 30Q337 30 311.50 61Q286 92 296 135Q305 177 341.50 205Q378 233 422 233Q467 233 491.50 202.50Q516 172 506 129Q498 86 462 58Q426 30 381 30M390 84Q411 84 427.50 97.50Q444 111 449 131Q454 151 444 165Q434 179 413 179Q391 179 374 165Q357 151 352 130Q348 111 359 97.50Q370 84 390 84Z"  horiz-adv-x="575" vert-adv-y="1000"  />

      
      <glyph glyph-name="uni26" unicode="&#x26;" d="M211 527Q234 602 305 628Q368 651 419 620Q478 583 459 500Q454 480 440.50 459.50Q427 439 415 426Q403 413 377 394.50Q351 376 340.50 369.50Q330 363 301 345Q355 229 414 147Q463 208 475 291Q476 304 488 306.50Q500 309 511 301.50Q522 294 521 281Q513 183 449 106Q482 64 517 27Q531 14 510 1Q484-13 464 0L462 2Q442 20 408 61Q332-9 227-9Q136-8 94.50 43.50Q53 95 62 165Q76 284 224 365Q189 455 211 527M281 521Q258 459 279 397Q310 417 327.50 429.50Q345 442 364 464Q383 486 390 511Q405 559 371 574Q339 587 307 559Q290 543 281 521M249 311Q192 274 165.50 240.50Q139 207 135 166Q130 120 154.50 86Q179 52 235 51Q311 51 372 105Q322 173 249 311Z"  horiz-adv-x="564" vert-adv-y="1000"  />

      
      <glyph glyph-name="uni27" unicode="&#x27;" d="M136 535Q133 525 119 521.50Q105 518 93.50 523.50Q82 529 85 542L115 671Q120 693 146 691Q170 690 172 672Q172 668 171 664L136 535Z"  horiz-adv-x="225" vert-adv-y="1000"  />

      
      <glyph glyph-name="uni28" unicode="&#x28;" d="M211-151Q85 27 121 277Q140 406 205.50 512.50Q271 619 368 677Q379 684 393 675.50Q407 667 410.50 654Q414 641 404 631Q328 578 274.50 483Q221 388 202 274Q185 165 202 63.50Q219-38 266-117Q277-136 250.50-152.50Q224-169 211-151Z"  horiz-adv-x="463" vert-adv-y="1000"  />

      
      <glyph glyph-name="uni29" unicode="&#x29;" d="M62-157Q44-167 26.50-145Q9-123 27-110Q107-54 161 46.50Q215 147 231 268Q245 370 227.50 467Q210 564 165 638Q154 657 180.50 673Q207 689 219 672Q346 494 310 243Q291 114 225.50 8Q160-98 62-157Z"  horiz-adv-x="398" vert-adv-y="1000"  />

      
      <glyph glyph-name="uni2a" unicode="&#x2a;" d="M294 470Q301 463 297.50 452Q294 441 283.50 434Q273 427 265 434L206 478L200 401Q199 385 175.50 384.50Q152 384 152 398L152 401L160 479L91 434Q83 428 73 435Q63 442 60.50 452.50Q58 463 66 470L146 520L77 568Q69 575 72.50 586Q76 597 87 603.50Q98 610 107 604L165 560L173 637Q173 647 185.50 651.50Q198 656 210 651.50Q222 647 221 637L212 560L279 604Q288 610 298.50 602.50Q309 595 310.50 584.50Q312 574 304 567L229 518L294 470Z"  horiz-adv-x="333" vert-adv-y="1000"  />

      
      <glyph glyph-name="uni2b" unicode="&#x2b;" d="M227 114Q224 104 207.50 101.50Q191 99 177 105Q163 111 166 121L206 262L108 262Q96 262 92.50 276.50Q89 291 96 305.50Q103 320 117 320L222 319L261 457Q265 471 281.50 473.50Q298 476 311.50 468Q325 460 322 449L285 319L384 319Q397 319 401 304.50Q405 290 397.50 276Q390 262 377 262L269 262L227 114Z"  horiz-adv-x="489" vert-adv-y="1000"  />

      
      <glyph glyph-name="uni2c" unicode="&#x2c;" d="M75-122Q67-128 56-123Q45-118 41.50-110Q38-102 43-95Q87-56 100-1Q72 10 73 40Q73 61 87.50 73.50Q102 86 121 86Q140 86 152 73Q164 60 163 38Q162-6 137.50-50Q113-94 75-122Z"  horiz-adv-x="270" vert-adv-y="1000"  />

      
      <glyph glyph-name="uni2d" unicode="&#x2d;" d="M139 229Q127 229 124 244Q121 259 128.50 274Q136 289 149 289L323 289Q335 289 338.50 274Q342 259 334.50 244Q327 229 314 229L139 229Z"  horiz-adv-x="459" vert-adv-y="1000"  />

      
      <glyph glyph-name="uni2e" unicode="&#x2e;" d="M100 9.50Q100 9.50 93 2.75Q86-4 68-4Q50-4 38 9.50Q26 23 27 42Q28 59 42 72.50Q56 86 75 86Q95 86 106 73Q117 60 116 41Q114 23 100 9.50Z"  horiz-adv-x="224" vert-adv-y="1000"  />

      
      <glyph glyph-name="uni2f" unicode="&#x2f;" d="M38 23Q70 77 168.50 324Q267 571 308 639Q326 668 360 657Q383 650 383 635Q383 631 380 627Q339 564 284 432.50Q229 301 178.50 174Q128 47 100 0Q87-18 57-9Q31-1 36 17Q36 20 38 23Z"  horiz-adv-x="411" vert-adv-y="1000"  />

      
      <glyph glyph-name="uni30" unicode="&#x30;" d="M322 654Q504 651 458 370Q447 300 425 236.50Q403 173 369 116.50Q335 60 285 26Q235-8 176-8Q93-8 59 67Q25 142 46 288Q60 383 95.50 464.50Q131 546 191 600Q251 654 322 654M316 594Q279 595 244.50 562Q210 529 186.50 477Q163 425 146.50 371Q130 317 123 267Q94 55 183 55Q232 55 274 106.50Q316 158 341.50 229.50Q367 301 380 383Q387 425 389 456Q391 487 387 521Q383 555 365.50 574Q348 593 316 594Z"  horiz-adv-x="502" vert-adv-y="1000"  />

      
      <glyph glyph-name="uni31" unicode="&#x31;" d="M263 631Q276 662 313 656Q341 651 343 634Q344 630 343 627Q310 527 250 279Q190 31 182 3Q178-8 157.50-10Q137-12 120.50-4.50Q104 3 108 14Q111 28 133.50 122.50Q156 217 169 268.50Q182 320 203 398Q224 476 240 527Q169 436 83 392Q69 386 56 397Q43 408 40.50 421.50Q38 435 45 442Q182 523 263 631Z"  horiz-adv-x="375" vert-adv-y="1000"  />

      
      <glyph glyph-name="uni32" unicode="&#x32;" d="M360 1Q206 3 58 1Q22 0 17.50 32Q13 64 43 81Q128 133 218 238.50Q308 344 333 438Q353 510 329.50 549.50Q306 589 260 589Q216 589 183 553.50Q150 518 154 457Q156 442 139 434Q122 426 104 431.50Q86 437 86 455Q84 546 139 598Q194 650 267 651Q346 652 391.50 594.50Q437 537 412 429Q389 331 300.50 224.50Q212 118 116 60Q238 70 376 61Q398 59 391 32Q385 7 367 2Q363 1 360 1Z"  horiz-adv-x="483" vert-adv-y="1000"  />

      
      <glyph glyph-name="uni33" unicode="&#x33;" d="M210 362Q280 367 320.50 401.50Q361 436 366 492Q371 558 321 581Q275 602 229 571Q181 540 178 472Q178 460 161 453Q144 446 128 450.50Q112 455 112 470Q116 582 201 629Q271 667 347 641Q419 617 439 550Q449 518 442 479Q432 422 390 384.50Q348 347 295 338Q364 328 392 275Q420 222 407 155Q386 50 296 8Q216-29 137 2Q58 33 40 113Q32 148 38 189Q40 202 57.50 206Q75 210 91 202.50Q107 195 105 180Q100 137 117.50 105Q135 73 165 62Q195 51 227.50 54Q260 57 287.50 84.50Q315 112 325 157Q339 222 313.50 265Q288 308 209 308Q196 308 191 322Q186 336 191.50 349.50Q197 363 210 362Z"  horiz-adv-x="475" vert-adv-y="1000"  />

      
      <glyph glyph-name="uni34" unicode="&#x34;" d="M378 642Q389 655 409 656Q429 657 443 648Q457 639 454 626Q444 587 433.50 532.50Q423 478 415.50 435Q408 392 396 321.50Q384 251 378 215Q440 215 453 214Q468 213 473.50 198.50Q479 184 472 170.50Q465 157 448 158Q418 159 368 159Q344 37 339 14Q335-2 300-1Q268-1 268 15Q268 16 269 18Q275 45 297 156Q119 147 57 152Q39 154 31 169Q23 184 35 204Q81 266 210 425.50Q339 585 378 642M369 535Q322 467 226 345Q130 223 120 209Q298 213 306 213Q346 435 369 535Z"  horiz-adv-x="526" vert-adv-y="1000"  />

      
      <glyph glyph-name="uni35" unicode="&#x35;" d="M420 650Q441 653 448 627.50Q455 602 437 593Q340 556 223 586Q199 466 182 408Q240 427 287 424.50Q334 422 362 402.50Q390 383 408.50 351.50Q427 320 428.50 281.50Q430 243 425 202Q409 116 348.50 54Q288-8 203-8Q103-9 60 55.50Q17 120 37 202Q38 214 55 218.50Q72 223 87.50 216.50Q103 210 102 196Q91 134 118.50 95Q146 56 203 55Q255 54 293.50 96Q332 138 345 199Q354 238 349.50 272.50Q345 307 324 333Q303 359 262.50 364.50Q222 370 160 350Q143 342 120 348.50Q97 355 104 378Q112 402 156 595Q161 619 165.50 630Q170 641 180.50 644Q191 647 201.50 645Q212 643 237.50 639Q263 635 289 635Q346 634 420 650Z"  horiz-adv-x="493" vert-adv-y="1000"  />

      
      <glyph glyph-name="uni36" unicode="&#x36;" d="M192-9Q106-11 69.50 55.50Q33 122 41 224Q45 274 56.50 328.50Q68 383 90.50 442Q113 501 143 547Q173 593 218 623.50Q263 654 315 654Q370 655 407 628Q444 601 456 556Q459 545 444.50 536Q430 527 413 527.50Q396 528 393 538Q375 596 313 594Q269 593 231.50 550.50Q194 508 172 453.50Q150 399 135 333Q200 428 292 429Q370 430 405 368Q440 306 426 221Q410 123 346 56.50Q282-10 192-9M194 53Q252 52 293.50 101Q335 150 349 225Q360 287 343.50 328.50Q327 370 279 370Q229 369 186 330Q143 291 117 230Q101 55 194 53Z"  horiz-adv-x="506" vert-adv-y="1000"  />

      
      <glyph glyph-name="uni37" unicode="&#x37;" d="M357 646Q379 651 396 637Q413 623 403 607Q380 569 352 514.50Q324 460 301 410Q278 360 248.50 291.50Q219 223 202.50 183Q186 143 161.50 81.50Q137 20 132 8Q127-3 107-4.50Q87-6 71.50 2.50Q56 11 61 26Q205 407 306 579Q160 545 53 585Q39 592 39.50 607.50Q40 623 50.50 637Q61 651 70 648Q197 608 357 646Z"  horiz-adv-x="396" vert-adv-y="1000"  />

      
      <glyph glyph-name="uni38" unicode="&#x38;" d="M130 532Q141 614 218 644Q288 671 357 641Q427 610 432 541Q433 521 428 499Q409 418 299 353Q426 261 413 157Q404 83 347.50 36.50Q291-10 191-9Q104-8 62 43.50Q20 95 28 166Q40 283 198 362Q113 432 130 532M203 522Q191 453 255 390Q296 415 323.50 446.50Q351 478 357 510Q370 561 327 586Q287 610 247 589Q209 570 203 522M240 322Q184 299 148 257.50Q112 216 106 167Q100 122 124.50 87.50Q149 53 200 51Q259 50 295 83Q331 116 335 168Q339 211 312 251Q285 291 240 322Z"  horiz-adv-x="471" vert-adv-y="1000"  />

      
      <glyph glyph-name="uni39" unicode="&#x39;" d="M180-9Q130-10 95 14Q60 38 46 75Q43 84 55.50 94.50Q68 105 81 107Q94 109 100 102Q125 49 183 51Q217 52 246.50 73.50Q276 95 297 131Q318 167 332.50 207.50Q347 248 357 294Q307 216 213 216Q128 215 91 277.50Q54 340 68 425Q84 523 145 589Q206 655 295 654Q387 655 424 589.50Q461 524 453 421Q449 370 438.50 316.50Q428 263 406.50 203.50Q385 144 356 98Q327 52 281 21.50Q235-9 180-9M223 275Q337 277 378 426Q385 504 367 547.50Q349 591 294 592Q236 594 197 545.50Q158 497 145 421Q135 359 152.50 317Q170 275 223 275Z"  horiz-adv-x="493" vert-adv-y="1000"  />

      
      <glyph glyph-name="uni3a" unicode="&#x3a;" d="M158 301Q139 301 126 315Q113 329 113 348Q114 366 127.50 379Q141 392 160 393Q179 393 192 379.50Q205 366 205 347Q203 328 189.50 314.50Q176 301 158 301M90-4Q71-4 57.50 9.50Q44 23 45 42Q46 61 59.50 74Q73 87 92 88Q111 88 124 74.50Q137 61 136 42Q135 23 121.50 9.50Q108-4 90-4Z"  horiz-adv-x="297" vert-adv-y="1000"  />

      
      <glyph glyph-name="uni3b" unicode="&#x3b;" d="M172 301Q153 301 140.50 314.50Q128 328 128 347Q129 366 142 379Q155 392 174 392Q194 392 207 379Q220 366 219 347Q217 328 203.50 314.50Q190 301 172 301M61-121Q53-127 42.50-123Q32-119 28.50-110.50Q25-102 31-95Q73-57 88-1Q60 10 60 40Q61 60 74.50 72.50Q88 85 106 86Q126 86 138.50 73.50Q151 61 150 38Q149-6 124-50Q99-94 61-121Z"  horiz-adv-x="327" vert-adv-y="1000"  />

      
      <glyph glyph-name="uni3c" unicode="&#x3c;" d="M166 102L66 268Q43 306 78 334L251 477Q264 487 278.50 480Q293 473 296 458.50Q299 444 287 431L125 294L223 134Q228 124 216.50 110Q205 96 190.50 92.50Q176 89 166 102Z"  horiz-adv-x="363" vert-adv-y="1000"  />

      
      <glyph glyph-name="uni3d" unicode="&#x3d;" d="M139 322Q127 322 123.50 336Q120 350 127 364.50Q134 379 147 379L415 379Q428 379 432 365Q436 351 428.50 337Q421 323 408 323L139 322M117 199Q105 199 101.50 213.50Q98 228 105 242Q112 256 125 256L393 256Q406 256 410 242Q414 228 406.50 213.50Q399 199 386 199L117 199Z"  horiz-adv-x="521" vert-adv-y="1000"  />

      
      <glyph glyph-name="uni3e" unicode="&#x3e;" d="M187 472L287 305Q310 268 275 240L102 97Q89 87 74.50 94Q60 101 57 115.50Q54 130 66 143L228 280L132 440Q126 450 137 463.50Q148 477 162.50 480.50Q177 484 187 472Z"  horiz-adv-x="363" vert-adv-y="1000"  />

      
      <glyph glyph-name="uni3f" unicode="&#x3f;" d="M112 174Q113 205 124.50 233.50Q136 262 148 279Q160 296 182 321Q194 335 237.50 378Q281 421 303 453.50Q325 486 334 526Q355 615 285 631Q240 643 201 609Q162 575 152 510Q150 498 139 491Q128 484 115.50 485Q103 486 93.50 494.50Q84 503 85 517Q97 615 156.50 660Q216 705 295 695Q359 686 392.50 640.50Q426 595 411 522Q403 481 382 445Q361 409 340.50 388Q320 367 286.50 336Q253 305 236 287Q180 228 175 172Q174 160 158 155.50Q142 151 127 156.50Q112 162 112 174M125-4Q107-4 95 9.50Q83 23 84 42Q86 60 100 73Q114 86 132 86Q152 86 163.50 73Q175 60 173 41Q171 23 157.50 9.50Q144-4 125-4Z"  horiz-adv-x="469" vert-adv-y="1000"  />

      
      <glyph glyph-name="uni40" unicode="&#x40;" d="M457 539Q576 538 649 483.50Q722 429 723 320Q726 205 655.50 114Q585 23 493 23Q457 23 438.50 50Q420 77 427 127Q408 95 393.50 75.50Q379 56 353.50 39Q328 22 299 22Q248 21 226.50 60Q205 99 216 157Q227 215 265 269Q296 314 335.50 341Q375 368 414 374Q454 382 498 372Q542 362 573 333Q582 323 567.50 306.50Q553 290 542 299Q490 339 431 329Q364 317 315 235Q290 192 283.50 144Q277 96 296 76Q316 57 349.50 84Q383 111 415.50 168Q448 225 465 288Q468 300 483.50 301.50Q499 303 511.50 296Q524 289 522 280Q519 268 510 235Q501 202 494 173.50Q487 145 484 124Q475 73 501 73Q548 73 584 113.50Q620 154 636 207.50Q652 261 652 314Q651 391 598 434Q545 477 456 478Q329 479 240.50 391Q152 303 133 177Q117 71 153.50-0.50Q190-72 264-89.50Q338-107 440-70Q454-65 459-87Q463-115 447-123Q353-162 276-154Q199-146 146-105Q93-64 69 10Q45 84 58 176Q78 326 186.50 433.50Q295 541 457 539Z"  horiz-adv-x="803" vert-adv-y="1000"  />

      
      <glyph glyph-name="uni41" unicode="&#x41;" d="M175-10Q106-10 76.50 31.50Q47 73 62 136Q82 220 165 264Q248 308 348 296Q458 564 528 637Q570 679 613 687Q656 695 681 668Q706 641 700 590Q682 451 636 271Q751 281 806 346Q819 360 829 344Q836 330 828 318Q764 230 625 219Q620 198 609.50 153.50Q599 109 592 76Q585 43 582 15Q576-2 538.50-1.50Q501-1 499 16Q508 73 544 217Q538 217 403 234Q354 113 304 52Q254-9 175-10M557 271Q612 486 633 591Q639 624 622.50 629.50Q606 635 583 609Q570 595 557 576.50Q544 558 530.50 532.50Q517 507 507.50 488.50Q498 470 484 436Q470 402 464 387.50Q458 373 443 334Q428 295 425 287Q531 272 557 271M178 50Q198 50 215.50 61Q233 72 245 84.50Q257 97 273.50 128Q290 159 298.50 177.50Q307 196 326 240Q177 245 141 132Q130 100 139.50 75Q149 50 178 50Z"  horiz-adv-x="780" vert-adv-y="1000"  />

      
      <glyph glyph-name="uni42" unicode="&#x42;" d="M529 698Q644 697 712 639.50Q780 582 764 495Q754 440 707.50 403.50Q661 367 608 360Q674 351 718.50 296.50Q763 242 754 170Q741 81 683.50 35Q626-11 533-9Q446-7 352 62Q303-7 214-9Q161-9 125 16.50Q89 42 90 90Q91 144 129.50 171.50Q168 199 221.50 193.50Q275 188 323 155Q341 200 358.50 263Q376 326 389 374.50Q402 423 418.50 469.50Q435 516 459 545.50Q483 575 516 583Q539 590 553 571Q562 558 550 549Q535 542 523.50 528.50Q512 515 503.50 494.50Q495 474 490 459Q485 444 477.50 417.50Q470 391 467 381Q550 378 608 407.50Q666 437 681 496Q696 557 655.50 596Q615 635 526 636Q443 637 377.50 601Q312 565 291.50 508.50Q271 452 309 382Q315 366 293.50 351Q272 336 258 347Q217 377 206 424Q195 471 208.50 515.50Q222 560 253 593Q353 699 529 698M451 332Q449 326 434.50 272.50Q420 219 407.50 182Q395 145 380 113Q435 67 499.50 55Q564 43 614.50 75Q665 107 673 180Q679 240 646.50 277Q614 314 561 325Q510 336 451 332M229 139Q185 146 166 114Q150 86 173 65Q191 48 226 50Q267 53 300 106Q258 137 229 139Z"  horiz-adv-x="834" vert-adv-y="1000"  />

      
      <glyph glyph-name="uni43" unicode="&#x43;" d="M502 697Q573 693 604 640Q635 587 605 516Q583 461 526.50 432.50Q470 404 400 411.50Q330 419 272 463Q229 368 227 276Q225 164 264 107Q303 50 375 52Q441 53 502.50 94Q564 135 605 231Q609 235 617 233.50Q625 232 632 225Q639 218 636 212Q588 98 519.50 45.50Q451-7 351-9Q244-11 189 68Q134 147 142 273Q152 413 223 527Q171 607 168 676Q167 686 178 690.50Q189 695 201.50 691Q214 687 215 677Q218 635 254 571Q363 705 502 697M488 634Q381 640 301 515Q360 467 431.50 475Q503 483 526 532Q548 569 536.50 600.50Q525 632 488 634Z"  horiz-adv-x="603" vert-adv-y="1000"  />

      
      <glyph glyph-name="uni44" unicode="&#x44;" d="M487 697Q629 693 713 600Q797 507 794 363Q791 205 717 95Q643-15 517-9Q408-4 331 62Q280-8 198-10Q132-11 98 19.50Q64 50 68 95Q73 148 112.50 173.50Q152 199 204 192.50Q256 186 301 154Q316 194 346 300.50Q376 407 404.50 475.50Q433 544 471 575Q483 582 498 580.50Q513 579 523 570Q533 561 528 552Q491 511 461 424.50Q431 338 405.50 245Q380 152 359 114Q389 88 436 70.50Q483 53 524 53Q582 54 625.50 98.50Q669 143 690 212Q711 281 712 363Q714 483 654.50 559.50Q595 636 473 636Q420 636 372.50 612Q325 588 299.50 551Q274 514 269 469.50Q264 425 296 383Q304 370 282.50 352.50Q261 335 243 347Q188 397 188 466.50Q188 536 236 594Q277 644 343.50 671.50Q410 699 487 697M202 140Q166 143 148.50 120Q131 97 144.50 72Q158 47 197 47Q223 47 241 61.50Q259 76 281 106Q237 137 202 140Z"  horiz-adv-x="859" vert-adv-y="1000"  />

      
      <glyph glyph-name="uni45" unicode="&#x45;" d="M244 744Q242 690 256 654Q303 693 370 698.50Q437 704 486.50 673Q536 642 534 585Q532 541 497 513.50Q462 486 402 490Q317 497 271 552Q253 499 292.50 448.50Q332 398 404 390Q417 385 413 361Q409 337 395 336Q349 340 302 326.50Q255 313 215.50 274Q176 235 171 177Q164 121 198 87Q232 53 287 52Q451 48 531 231Q534 235 542 233.50Q550 232 557 225.50Q564 219 562 212Q471-14 267-9Q185-7 131 44.50Q77 96 85 174Q92 258 151.50 316Q211 374 290 379Q240 396 213.50 439Q187 482 189 532.50Q191 583 221 624Q203 668 206 744Q206 751 215.50 755Q225 759 234.50 756.50Q244 754 244 744M296 601Q338 551 399 548Q427 546 442 557.50Q457 569 458 588Q458 618 427.50 631Q397 644 358 636Q319 628 296 601Z"  horiz-adv-x="529" vert-adv-y="1000"  />

      
      <glyph glyph-name="uni46" unicode="&#x46;" d="M519 679Q535 704 574 696Q603 691 604 675Q604 672 603 670Q564 556 504 331Q510 331 569 335Q582 333 582 311.50Q582 290 566 285Q511 280 489 279Q446 119 402.50 55Q359-9 267-10Q197-10 158 32Q119 74 127 133Q135 192 188 237Q200 248 222 232.50Q244 217 235 204Q194 151 208 101Q222 51 278 51Q295 51 308.50 57Q322 63 334.50 80.50Q347 98 354.50 111.50Q362 125 373.50 159Q385 193 390.50 212Q396 231 409 279Q405 279 369 277.50Q333 276 326 278Q307 281 310.50 303.50Q314 326 330 328Q389 326 424 331Q492 586 505 615Q476 587 435 580.50Q394 574 358.50 581Q323 588 281.50 586.50Q240 585 212 566Q184 548 178 520Q172 492 188 476Q200 460 234.50 459.50Q269 459 290 476Q302 487 317.50 470Q333 453 325 441Q284 399 222.50 399.50Q161 400 129 431Q103 456 97 492Q91 528 112 565Q133 602 179 624Q228 647 280 647.50Q332 648 367 638.50Q402 629 443.50 636.50Q485 644 519 679Z"  horiz-adv-x="619" vert-adv-y="1000"  />

      
      <glyph glyph-name="uni47" unicode="&#x47;" d="M512 696Q601 694 642 644Q683 594 651 516Q623 446 558 415.50Q493 385 416 399Q339 413 276 466Q247 419 228.50 351Q210 283 208.50 217Q207 151 238 104Q269 57 332 56Q459 54 547 262Q551 271 569.50 271.50Q588 272 604 265.50Q620 259 617 249Q573 99 549 0Q611 26 662.50 86Q714 146 748 231Q751 235 759 233.50Q767 232 774 225Q781 218 778 212Q729 102 674.50 41Q620-20 533-58Q499-193 457-244Q415-295 349-295Q306-296 280.50-274Q255-252 257-211Q260-153 316-109.50Q372-66 465-28Q495 74 502 105Q422-7 314-4Q241-2 195 38Q149 78 136 139.50Q123 201 129 271.50Q135 342 160.50 409Q186 476 222 524Q165 596 164 682Q163 697 185 696Q209 694 211 679Q211 677 211 676Q217 614 254 565Q302 624 372 660.50Q442 697 512 696M507 634Q455 635 401 602.50Q347 570 305 513Q378 455 462 461.50Q546 468 574 536Q593 578 571 606Q549 634 507 634M452-86Q344-147 332-194Q324-220 339-228.50Q354-237 368-224Q395-221 415-188Q435-155 452-86Z"  horiz-adv-x="745" vert-adv-y="1000"  />

      
      <glyph glyph-name="uni48" unicode="&#x48;" d="M511 683Q524 702 558 696.50Q592 691 590 670Q578 633 485 296Q492 295 548.50 284Q605 273 639 271Q646 299 662 364Q678 429 688.50 469Q699 509 716.50 563Q734 617 752 657Q761 671 795.50 661.50Q830 652 829 636Q812 601 795.50 549.50Q779 498 770 465Q761 432 743.50 360Q726 288 721 270Q812 280 874 341Q887 353 897 338Q909 321 890 301Q815 226 708 217Q699 183 678 111Q657 39 650 12Q642-4 604-1.50Q566 1 567 19Q567 20 591 98Q615 176 626 218Q593 221 536 231.50Q479 242 468 244Q433 111 386.50 50Q340-11 254-10Q173-9 147.50 36.50Q122 82 136 144Q151 215 226.50 265Q302 315 404 304Q424 371 452.50 473.50Q481 576 492 613Q463 585 425.50 579.50Q388 574 338.50 579.50Q289 585 265 582Q220 579 194 566Q168 553 164 517Q161 492 179 473.50Q197 455 224.50 454.50Q252 454 282 475Q289 480 298.50 474Q308 468 311.50 458Q315 448 310 439Q272 396 210.50 395.50Q149 395 118 431Q75 476 89 539Q110 633 247 640Q284 645 340 637Q396 629 435 636Q474 643 511 683M391 247Q324 254 276 222Q228 190 215 137Q207 100 216.50 75.50Q226 51 260 51Q307 50 337.50 101Q368 152 391 247Z"  horiz-adv-x="843" vert-adv-y="1000"  />

      
      <glyph glyph-name="uni49" unicode="&#x49;" d="M468 676Q476 691 497 694.50Q518 698 535 690Q552 682 552 670Q520 568 437 269Q421 209 408.50 172Q396 135 377.50 96Q359 57 338 36.50Q317 16 286.50 2.50Q256-11 217-11Q147-11 108 32Q69 75 77 134Q85 193 138 236Q151 246 170.50 232Q190 218 185 204Q159 169 155.50 133Q152 97 172 74Q192 51 229 51Q248 51 264.50 62.50Q281 74 292.50 90.50Q304 107 315 135.50Q326 164 333.50 187.50Q341 211 351 248Q353 255 354 259Q447 598 448 601Q417 567 373 539.50Q329 512 296 498.50Q263 485 236.50 464Q210 443 204 417Q188 353 245 345Q259 340 255 317.50Q251 295 233 296Q167 298 138.50 337.50Q110 377 121 425Q131 471 171.50 501Q212 531 259.50 546Q307 561 367.50 594.50Q428 628 468 676Z"  horiz-adv-x="520" vert-adv-y="1000"  />

      
      <glyph glyph-name="uni4a" unicode="&#x4a;" d="M154-292Q90-290 60-244.50Q30-199 55-139Q63-117 76-98.50Q89-80 110-65Q131-50 148-40Q165-30 196-18.50Q227-7 243-2Q259 3 293 14Q417 475 451 597Q413 555 354 525Q295 495 256.50 472.50Q218 450 211 417Q196 353 252 345Q261 344 263 331.50Q265 319 258 307Q251 295 238 296Q172 299 144 338.50Q116 378 128 426Q139 471 180 501Q221 531 268.50 546Q316 561 376 594.50Q436 628 475 677Q484 692 505 695.50Q526 699 542 691Q558 683 556 670Q530 589 380 40Q441 56 496.50 104.50Q552 153 585 231Q588 235 596 233.50Q604 232 611 225.50Q618 219 616 213Q599 169 573 132.50Q547 96 524.50 74.50Q502 53 468.50 33.50Q435 14 416 6Q397-2 365-14Q334-143 311-188Q260-295 154-292M156-232Q179-234 203-216.50Q227-199 243-164Q263-123 279-40Q145-85 119-153Q106-190 118-210.50Q130-231 156-232Z"  horiz-adv-x="583" vert-adv-y="1000"  />

      
      <glyph glyph-name="uni4b" unicode="&#x4b;" d="M728 681Q736 694 756 694.50Q776 695 792 686Q808 677 806 666Q764 551 694 459Q624 367 538 336Q576 319 594 285Q612 251 620 201Q622 193 626.50 165.50Q631 138 633.50 125.50Q636 113 642 87.50Q648 62 654 48.50Q660 35 669.50 16Q679-3 690-13.50Q701-24 717-32.50Q733-41 751-43Q759-48 758.50-61.50Q758-75 744.50-88.50Q731-102 713-102Q685-100 662-90Q639-80 623.50-59Q608-38 597-20Q586-2 577.50 31.50Q569 65 565 84Q561 103 555 141.50Q549 180 547 193Q526 311 444 305Q425 232 411 188Q397 144 378 101.50Q359 59 337.50 37.50Q316 16 285.50 3Q255-10 215-10Q146-11 107 31.50Q68 74 76 133Q84 192 137 236Q148 246 168 233Q188 220 184 204Q158 170 154.50 133.50Q151 97 171 73.50Q191 50 228 50Q247 50 263 61Q279 72 289.50 86Q300 100 311 128Q322 156 328 174.50Q334 193 344 229Q366 308 389 394Q412 480 424.50 526.50Q437 573 447 601Q416 567 371.50 539.50Q327 512 294 498.50Q261 485 234.50 463.50Q208 442 202 416Q189 353 244 345Q253 344 255 331.50Q257 319 250.50 307.50Q244 296 231 296Q165 298 136.50 338Q108 378 120 426Q129 463 156 488.50Q183 514 221.50 530.50Q260 547 301 563Q342 579 388 608Q434 637 467 677Q473 692 495 695Q517 698 535.50 690Q554 682 552 670Q516 566 462 367Q492 376 520 392Q548 408 569 424.50Q590 441 610.50 467Q631 493 644 511.50Q657 530 672.50 560Q688 590 694.50 604.50Q701 619 713.50 647.50Q726 676 728 681Z"  horiz-adv-x="783" vert-adv-y="1000"  />

      
      <glyph glyph-name="uni4c" unicode="&#x4c;" d="M469 673Q475 691 497 695Q519 699 537.50 691Q556 683 555 671Q537 616 481 395.50Q425 175 390 109Q408 91 434.50 62Q461 33 477 17Q493 1 515.50-20Q538-41 557-51Q576-61 599.50-69Q623-77 649-75.50Q675-74 704-64Q714-61 723.50-72.50Q733-84 733.50-100Q734-116 722-131Q684-144 649.50-146.50Q615-149 583.50-138.50Q552-128 529-117.50Q506-107 476.50-80.50Q447-54 432-39Q417-24 387.50 10Q358 44 347 55Q318 23 290 7.50Q262-8 218-10Q150-13 118.50 22.50Q87 58 98 108Q105 146 141 169Q177 192 229.50 190Q282 188 330 155Q360 232 400 394.50Q440 557 454 604Q423 568 378.50 540.50Q334 513 300.50 499Q267 485 240 464Q213 443 207 417Q194 354 248 345Q262 340 258 318Q254 296 236 296Q170 298 141.50 337.50Q113 377 124 425Q132 462 159 487.50Q186 513 224.50 529.50Q263 546 304 562Q345 578 390.50 606Q436 634 469 673M172 105Q164 83 176.50 65Q189 47 223 48Q272 49 307 102Q276 133 231.50 136.50Q187 140 172 105Z"  horiz-adv-x="584" vert-adv-y="1000"  />

      
      <glyph glyph-name="uni4d" unicode="&#x4d;" d="M1029-84Q999-71 980-47Q961-23 952 5Q943 33 943 74.50Q943 116 948 153.50Q953 191 966 244.50Q979 298 991 340.50Q1003 383 1022 442Q1054 548 1053 583Q1052 634 1009 633Q966 632 902 561.50Q838 491 782 397Q766 345 727.50 197Q689 49 674 9Q668-3 647-8Q626-13 607.50-8Q589-3 591 9Q622 102 667.50 280Q713 458 720 481Q728 512 732 534.50Q736 557 736.50 582Q737 607 725.50 620Q714 633 692 633Q646 633 578.50 552Q511 471 453 369Q445 341 419.50 253Q394 165 374 98Q354 31 347 12Q339-1 317.50-6.50Q296-12 278.50-6.50Q261-1 262 11Q300 119 351 299Q408 503 436 597Q405 564 361 537.50Q317 511 285 498Q253 485 226.50 464Q200 443 194 417Q181 354 236 345Q245 344 247 331Q249 318 242.50 306.50Q236 295 224 296Q158 298 129.50 337.50Q101 377 112 425Q120 462 147 487.50Q174 513 213 530Q252 547 293 563Q334 579 381 608.50Q428 638 461 678Q467 693 485.50 695.50Q504 698 519.50 689.50Q535 681 534 669Q506 567 491 516Q543 592 603.50 644.50Q664 697 721 697Q849 696 813 524Q932 698 1042 697Q1067 697 1086 690Q1105 683 1115 669.50Q1125 656 1131.50 641.50Q1138 627 1138 605.50Q1138 584 1137 567Q1136 550 1130 525.50Q1124 501 1120 486.50Q1116 472 1109.50 450Q1103 428 1101 421Q1093 391 1078 340Q1063 289 1055 258Q1047 227 1037 184.50Q1027 142 1025.50 114.50Q1024 87 1026.50 57.50Q1029 28 1042 8Q1055-12 1077-24Q1086-33 1083-48.50Q1080-64 1063.50-76.50Q1047-89 1029-84Z"  horiz-adv-x="1177" vert-adv-y="1000"  />

      
      <glyph glyph-name="uni4e" unicode="&#x4e;" d="M742 697Q774 697 796.50 686Q819 675 830.50 659.50Q842 644 846.50 618.50Q851 593 850.50 572.50Q850 552 844 521.50Q838 491 834 475.50Q830 460 823 435Q820 425 819 421Q812 396 801 357.50Q790 319 782.50 293Q775 267 766 232.50Q757 198 752.50 173.50Q748 149 744 120.50Q740 92 742 71.50Q744 51 749 31.50Q754 12 765.50-2Q777-16 794-24Q803-32 801-47.50Q799-63 783.50-76.50Q768-90 751-85Q728-77 711-63.50Q694-50 684-30.50Q674-11 667 8.50Q660 28 660 57.50Q660 87 660.50 110.50Q661 134 668.50 171.50Q676 209 681.50 234Q687 259 699 302.50Q711 346 718.50 371Q726 396 740 442Q750 475 756 504Q762 533 764 564.50Q766 596 753.50 614.50Q741 633 715 633Q657 633 575.50 535Q494 437 441 326Q431 292 410 217.50Q389 143 372.50 90Q356 37 344 9Q339-3 318-7.50Q297-12 278.50-6.50Q260-1 262 12Q288 86 316 181Q344 276 383.50 416Q423 556 435 597Q404 564 360 537Q316 510 284 497Q252 484 225.50 463.50Q199 443 194 417Q181 354 236 345Q245 344 247 331Q249 318 242.50 306.50Q236 295 224 296Q158 298 129.50 338Q101 378 112 425Q120 463 147.50 488.50Q175 514 213.50 530.50Q252 547 293.50 563Q335 579 381 608Q427 637 460 677Q466 693 484.50 696Q503 699 518.50 690.50Q534 682 533 669Q511 588 478 472Q612 698 742 697Z"  horiz-adv-x="888" vert-adv-y="1000"  />

      
      <glyph glyph-name="uni4f" unicode="&#x4f;" d="M444 696Q506 689 547 657Q588 625 604.50 581.50Q621 538 624 482.50Q627 427 620 380.50Q613 334 601 289Q675 301 740 339Q749 344 750 329Q752 305 739 296Q664 250 585 239Q546 131 473 60Q400-11 304-10Q189-9 139 77Q103 139 111 238Q119 337 168 411Q181 424 206 407.50Q231 391 223 373Q201 330 191.50 276Q182 222 187 172Q192 122 222 87Q252 52 304 50Q371 48 420.50 101Q470 154 501 239Q370 249 289 343.50Q208 438 231 554Q246 631 307 667.50Q368 704 444 696M439 633Q334 645 312 545Q292 456 352 379Q412 302 518 292Q530 333 535.50 384.50Q541 436 538.50 492.50Q536 549 510.50 588.50Q485 628 439 633Z"  horiz-adv-x="711" vert-adv-y="1000"  />

      
      <glyph glyph-name="uni50" unicode="&#x50;" d="M429 585Q453 591 471 573Q484 560 470 552Q444 541 422 500Q400 459 389.50 422Q379 385 363 320Q361 312 359.50 306.50Q358 301 357 295Q463 260 534 304.50Q605 349 616 448Q626 532 572 581Q518 630 436 634Q376 637 320.50 615.50Q265 594 232.50 557.50Q200 521 192.50 474.50Q185 428 221 381Q229 365 207.50 349.50Q186 334 172 345Q116 391 116 466Q116 533 160.50 587Q205 641 276.50 669.50Q348 698 431 697Q488 696 539.50 678.50Q591 661 630 629Q669 597 688.50 547.50Q708 498 699 438Q687 349 633 293Q579 237 504.50 227Q430 217 344 245Q336 214 322.50 156Q309 98 299.50 63.50Q290 29 280 11Q273-1 252-2Q231-3 216 6Q201 15 207 29Q223 60 245 154Q267 248 287 335Q307 422 345 498Q383 574 429 585Z"  horiz-adv-x="724" vert-adv-y="1000"  />

      
      <glyph glyph-name="uni51" unicode="&#x51;" d="M626-129Q579-126 532-98.50Q485-71 456-42.50Q427-14 385 33Q377 43 373 47Q311-7 233-9Q171-9 138.50 18Q106 45 107 87Q108 130 143.50 161.50Q179 193 234 192Q305 192 382 126Q555 291 564 483Q568 558 528 597.50Q488 637 411 637Q323 637 269 584Q215 531 213 449Q211 391 238.50 347.50Q266 304 320 291Q329 286 327.50 274Q326 262 315 252Q304 242 293 245Q212 257 169.50 312.50Q127 368 129 445Q131 557 211.50 627.50Q292 698 421 697Q527 697 589 642.50Q651 588 649 495Q648 386 588.50 278Q529 170 429 84Q444 71 475 39.50Q506 8 525-9Q544-26 574-42Q604-58 633-59Q657-64 683-56Q697-57 701.50-84.50Q706-112 690-125Q657-133 626-129M233 48Q283 48 335 89Q288 139 237 139Q214 139 198.50 123.50Q183 108 182 89Q182 72 195 60Q208 48 233 48Z"  horiz-adv-x="690" vert-adv-y="1000"  />

      
      <glyph glyph-name="uni52" unicode="&#x52;" d="M669-98Q626-95 593.50-70.50Q561-46 541.50-4.50Q522 37 511.50 75.50Q501 114 493 163Q483 241 438 263Q406 260 362 263Q308 64 278 11Q270 0 250-0.50Q230-1 215 8.50Q200 18 205 32Q225 64 248 140.50Q271 217 294 309Q317 401 329 435Q367 546 420 582Q442 596 473 584Q498 574 485 561Q452 533 426.50 477.50Q401 422 376 314Q485 309 552.50 352.50Q620 396 628 481Q635 556 584 595Q533 634 443 634Q358 634 291.50 590.50Q225 547 218 481Q203 428 236 381Q243 365 221.50 350Q200 335 187 345Q118 395 128 482Q136 549 183.50 599Q231 649 300.50 673Q370 697 451 697Q574 696 647 638.50Q720 581 710 484Q694 324 522 276Q553 252 568 166Q576 127 583.50 101.50Q591 76 606 42Q621 8 645-11.50Q669-31 702-34Q721-40 710-67Q699-95 674-98Q672-98 669-98Z"  horiz-adv-x="750" vert-adv-y="1000"  />

      
      <glyph glyph-name="uni53" unicode="&#x53;" d="M553 529Q549 508 519.50 509Q490 510 489 530Q496 636 396 638Q360 639 332.50 615.50Q305 592 302 542Q300 506 319.50 470Q339 434 369 402.50Q399 371 428.50 338.50Q458 306 477.50 265Q497 224 495 181Q490 91 431.50 40.50Q373-10 275-9Q198-9 150 32Q102 73 94 136Q86 199 109 274Q113 284 129.50 285Q146 286 160.50 278.50Q175 271 173 259Q148 168 182 110Q216 52 283 51Q342 50 375 84.50Q408 119 412 183Q414 220 393.50 256.50Q373 293 343 323.50Q313 354 283 386Q253 418 234 459.50Q215 501 219 547Q226 619 274 659Q322 699 399 698Q484 697 524.50 650Q565 603 553 529Z"  horiz-adv-x="585" vert-adv-y="1000"  />

      
      <glyph glyph-name="uni54" unicode="&#x54;" d="M244 689Q299 704 357.50 694Q416 684 456.50 665Q497 646 547.50 629Q598 612 636 613Q729 615 738 690Q741 704 763 702Q785 700 789 687Q793 651 778 618.50Q763 586 737 571Q661 526 527 569Q517 536 507.50 500Q498 464 481.50 399Q465 334 448 269Q431 210 418.50 172Q406 134 387.50 96Q369 58 348 37.50Q327 17 297.50 3.50Q268-10 230-10Q149-11 112.50 38Q76 87 89 147Q101 201 148 236Q161 246 180 232Q199 218 194 204Q153 151 168 100Q183 49 242 50Q271 51 294.50 82Q318 113 330.50 149Q343 185 360 246Q384 331 404.50 408.50Q425 486 436 527Q447 568 455 596Q396 621 355 631.50Q314 642 274 633Q221 622 208 580Q196 543 223 522Q257 496 318 529Q332 535 343 517.50Q354 500 345 490Q308 462 270.50 453Q233 444 205 452Q177 460 156.50 479.50Q136 499 128 527Q113 575 143 623Q173 671 244 689Z"  horiz-adv-x="696" vert-adv-y="1000"  />

      
      <glyph glyph-name="uni55" unicode="&#x55;" d="M451 680Q458 694 478.50 695.50Q499 697 515.50 688Q532 679 529 665Q484 521 401 212Q393 183 390 157Q387 131 389 106.50Q391 82 404 68Q417 54 441 54Q501 55 562.50 118.50Q624 182 646 252Q693 408 757 654Q764 668 784.50 669Q805 670 821.50 658Q838 646 834 628Q780 459 721 229Q678 54 735 54Q772 54 814.50 108Q857 162 885 231Q889 236 896.50 234Q904 232 911 225.50Q918 219 916 213Q822-2 711-2Q672-2 651 32.50Q630 67 633 127Q595 68 539 28.50Q483-11 423-10Q257-9 327 248Q349 332 424 594Q394 562 350.50 536Q307 510 275.50 497Q244 484 217.50 463.50Q191 443 186 417Q173 354 228 345Q237 343 238.50 330.50Q240 318 234 306.50Q228 295 216 296Q150 298 121 338Q92 378 104 425Q114 471 154.50 501Q195 531 242 546Q289 561 350 595.50Q411 630 451 680Z"  horiz-adv-x="883" vert-adv-y="1000"  />

      
      <glyph glyph-name="uni56" unicode="&#x56;" d="M781 804Q862 732 864 614Q865 537 830.50 460Q796 383 736 327Q719 311 664 263Q609 215 582.50 189.50Q556 164 515.50 114Q475 64 445 9Q432-10 401.50-6.50Q371-3 371 24Q385 125 392.50 306.50Q400 488 422 604Q393 571 350 544Q307 517 274 503Q241 489 214.50 467.50Q188 446 183 420Q173 356 227 348Q236 347 238 334Q240 321 234 309.50Q228 298 216 299Q157 300 123.50 336.50Q90 373 100 429Q108 466 134 491Q160 516 197.50 532.50Q235 549 275 565Q315 581 359.50 609Q404 637 435 676Q444 691 464.50 695.50Q485 700 501 693.50Q517 687 515 675Q498 630 487 558Q476 486 472 427.50Q468 369 463.50 275.50Q459 182 456 138Q486 184 522.50 224.50Q559 265 617.50 318Q676 371 687 381Q787 475 787 613Q787 700 728 756Q718 772 740 792.50Q762 813 781 804Z"  horiz-adv-x="857" vert-adv-y="1000"  />

      
      <glyph glyph-name="uni57" unicode="&#x57;" d="M1129 728Q1150 730 1163.50 704Q1177 678 1161 667Q1135 656 1114 628.50Q1093 601 1074.50 550Q1056 499 1045.50 464Q1035 429 1016.50 355.50Q998 282 992 258Q976 197 955.50 151.50Q935 106 905.50 68Q876 30 834 10Q792-10 740-10Q675-10 643.50 31.50Q612 73 617 132Q586 68 533 29Q480-10 423-9Q256-6 326 250Q375 428 424 594Q393 562 350 536Q307 510 275 496.50Q243 483 217 463Q191 443 185 417Q172 354 227 345Q236 343 238 330.50Q240 318 234 307Q228 296 216 296Q149 299 121.50 337.50Q94 376 103 425Q111 462 138 487.50Q165 513 204 530Q243 547 284.50 563.50Q326 580 372.50 609Q419 638 451 678Q460 691 480.50 694Q501 697 516 687.50Q531 678 527 661Q466 458 402 212Q394 183 391 157Q388 131 389.50 106.50Q391 82 404 67.50Q417 53 441 53Q494 54 547 122.50Q600 191 630 294Q729 637 740 672Q745 686 765.50 687.50Q786 689 802.50 677Q819 665 816 646Q758 466 689 196Q673 145 688.50 99Q704 53 750 54Q795 54 837.50 103.50Q880 153 902 234Q912 271 926.50 325.50Q941 380 949 410Q957 440 969.50 483Q982 526 990.50 550Q999 574 1011.50 604.50Q1024 635 1035.50 652Q1047 669 1061.50 686.50Q1076 704 1093 713.50Q1110 723 1129 728Z"  horiz-adv-x="1109" vert-adv-y="1000"  />

      
      <glyph glyph-name="uni58" unicode="&#x58;" d="M819 702Q839 707 852.50 681Q866 655 851 641Q820 624 786 588.50Q752 553 717.50 504Q683 455 653 407.50Q623 360 587 301Q582 293 579.50 288.50Q577 284 573 277.50Q569 271 566 266Q609 140 658.50 57.50Q708-25 786-62Q806-74 791-106.50Q776-139 753-132Q719-120 687.50-96Q656-72 632.50-43.50Q609-15 585.50 26Q562 67 546 103Q530 139 510 187Q381-11 249-10Q177-10 140.50 27.50Q104 65 104 119Q105 153 121 185.50Q137 218 165 235Q181 245 200.50 229.50Q220 214 210 200Q182 172 182 122Q181 91 199.50 70.50Q218 50 260 50Q350 50 481 272Q434 436 451 589Q414 553 359 525.50Q304 498 270 477Q236 456 228 425Q211 362 269 353Q278 352 282 340Q286 328 279.50 316Q273 304 257 304Q197 305 165.50 342Q134 379 145 433Q154 475 190.50 503.50Q227 532 269.50 546.50Q312 561 369 589Q426 617 464 654Q472 670 491.50 674.50Q511 679 527 671.50Q543 664 542 650Q507 523 542 359Q646 534 688 589Q759 682 819 702Z"  horiz-adv-x="796" vert-adv-y="1000"  />

      
      <glyph glyph-name="uni59" unicode="&#x59;" d="M865 229Q869 234 877 233Q885 232 892 225Q899 218 896 211Q848 103 790.50 40.50Q733-22 645-58Q627-127 618-152Q589-230 552.50-262.50Q516-295 458-295Q411-296 387-268Q363-240 371-198Q377-167 396-141.50Q415-116 448.50-94.50Q482-73 508.50-59.50Q535-46 578-28Q584-11 599.50 47Q615 105 623 131Q535-6 423-5Q260-4 328 253Q345 318 424 594Q394 562 350.50 536Q307 510 275.50 496.50Q244 483 217.50 463Q191 443 186 417Q173 354 227 345Q236 344 238.50 331Q241 318 234.50 306.50Q228 295 215 296Q149 299 121 338Q93 377 103 425Q112 463 139 488.50Q166 514 204.50 530.50Q243 547 284 563Q325 579 371.50 609Q418 639 452 680Q461 694 481 695.50Q501 697 516.50 687.50Q532 678 529 665Q488 535 403 217Q395 188 392 161.50Q389 135 390.50 110Q392 85 405 70Q418 55 441 55Q498 56 555.50 113Q613 170 651 259Q669 324 711.50 468Q754 612 768 664Q773 675 793 675.50Q813 676 829.50 667.50Q846 659 843 645Q816 560 753 334Q690 108 662 0Q722 22 776.50 82Q831 142 865 229M565-86Q470-136 449-183Q438-205 443.50-221Q449-237 470-236Q516-231 544-155Q557-118 565-86Z"  horiz-adv-x="863" vert-adv-y="1000"  />

      
      <glyph glyph-name="uni5a" unicode="&#x5a;" d="M631 677Q672 700 691.50 680.50Q711 661 699 635Q627 540 519.50 350Q412 160 373 102Q387 89 408 66Q429 43 445 26Q461 9 483-11.50Q505-32 525.50-44Q546-56 570-64.50Q594-73 621.50-71.50Q649-70 678-58Q688-57 696.50-70Q705-83 704-100Q703-117 689-125Q664-134 639-137Q614-140 593-139.50Q572-139 549-131Q526-123 510-116Q494-109 472.50-93Q451-77 438.50-67Q426-57 405.50-36Q385-15 376.50-5.50Q368 4 348.50 26.50Q329 49 323 55Q288 20 259 6Q230-8 187-9Q127-10 93.50 17.50Q60 45 62 89Q64 133 100.50 164Q137 195 192 192Q260 189 315 147Q351 196 447.50 368.50Q544 541 591 611Q528 598 481.50 608.50Q435 619 373 631.50Q311 644 274 636Q217 625 201 580Q188 543 215 522Q248 495 315 531Q329 539 340 519Q351 499 338 490Q260 438 198 455.50Q136 473 121 533Q109 584 142 632Q175 680 251 695Q300 705 355.50 696Q411 687 449.50 674Q488 661 539.50 658.50Q591 656 631 677M194 138Q161 138 144.50 115Q128 92 141 69Q154 46 192 48Q241 49 279 102Q240 138 194 138Z"  horiz-adv-x="665" vert-adv-y="1000"  />

      
      <glyph glyph-name="uni5b" unicode="&#x5b;" d="M92-160Q63-160 54-149Q45-138 53-105L243 630Q251 661 261.50 670.50Q272 680 297 680L407 680Q418 680 420 665.50Q422 651 415 636.50Q408 622 395 622L315 622L126-102L206-102Q216-102 217.50-116.50Q219-131 212-145.50Q205-160 195-160L92-160Z"  horiz-adv-x="442" vert-adv-y="1000"  />

      
      <glyph glyph-name="uni5c" unicode="&#x5c;" d="M446-1Q407 45 267.50 294.50Q128 544 65 615Q49 631 71 647Q97 665 122 648Q128 645 133 639Q185 578 326.50 323Q468 68 508 20Q521 4 495-6Q464-16 446-1Z"  horiz-adv-x="567" vert-adv-y="1000"  />

      
      <glyph glyph-name="uni5d" unicode="&#x5d;" d="M336 681Q365 681 374 670Q383 659 374 626L188-110Q180-140 169-149.50Q158-159 134-159L24-159Q13-159 10.50-144.50Q8-130 15-115.50Q22-101 35-101L115-101L302 623L222 623Q212 623 210.50 637.50Q209 652 215.50 666.50Q222 681 232 681L336 681Z"  horiz-adv-x="435" vert-adv-y="1000"  />

      
      <glyph glyph-name="uni5e" unicode="&#x5e;" d="M377 483Q385 466 361.50 448.50Q338 431 325 444L236 583L108 448Q89 430 69 449.50Q49 469 64 487L207 641Q225 659 247.50 657.50Q270 656 280 638L377 483Z"  horiz-adv-x="475" vert-adv-y="1000"  />

      
      <glyph glyph-name="uni5f" unicode="&#x5f;" d="M117-52Q106-52 101.50-39Q97-26 103-13Q109 0 123 0L354-1Q366-1 371-13.50Q376-26 370-39Q364-52 350-52L117-52Z"  horiz-adv-x="461" vert-adv-y="1000"  />

      
      <glyph glyph-name="uni60" unicode="&#x60;" d="M109 846Q151 789 168 762Q179 745 155 738Q129 730 117 745L50 827Q39 841 63 851Q92 863 107 848Q108 847 109 846Z"  horiz-adv-x="192" vert-adv-y="1000"  />

      
      <glyph glyph-name="uni61" unicode="&#x61;" d="M219 421Q271 430 326 418Q381 406 418 368Q426 358 406.50 338Q387 318 377 326Q310 377 238 364Q197 357 158.50 322.50Q120 288 94 238Q66 187 61 134Q56 81 76 60Q100 35 142 67Q184 99 223 169Q262 239 280 316Q285 327 303.50 327Q322 327 337.50 319Q353 311 353 301Q314 159 308 124Q296 54 328 54Q359 54 404 106Q449 158 478 230Q481 235 489 233.50Q497 232 504.50 225.50Q512 219 509 212Q413-2 296-2Q261-2 243 31.50Q225 65 236 119Q200 59 165 25.50Q130-8 79-9Q20-11-7.50 35Q-35 81-22 157Q-6 249 63.50 327.50Q133 406 219 421Z"  horiz-adv-x="476" vert-adv-y="1000"  />

      
      <glyph glyph-name="uni62" unicode="&#x62;" d="M120-8Q63-7 33.50 24Q4 55 1.50 104Q-1 153 6 214Q17 318 60 457.50Q103 597 139 682Q148 689 165.50 689.50Q183 690 200 681Q217 672 214 661Q179 577 116 368Q189 428 260 422Q326 417 352 364.50Q378 312 365.50 240.50Q353 169 312 98Q413 89 469 231Q472 241 489 230Q503 221 499 212Q422 30 279 62Q209-9 120-8M125 49Q180 46 219 94Q205 116 218 136Q231 156 252 148Q264 175 273 207.50Q282 240 287 277.50Q292 315 278 340.50Q264 366 229 367Q173 368 101 304Q89 271 80 233Q71 195 66.50 152Q62 109 76.50 80Q91 51 125 49Z"  horiz-adv-x="466" vert-adv-y="1000"  />

      
      <glyph glyph-name="uni63" unicode="&#x63;" d="M230 424Q289 423 317 394Q345 365 338.50 327.50Q332 290 299 261Q290 253 271.50 252.50Q253 252 239.50 257.50Q226 263 229 271Q246 290 254 310.50Q262 331 256.50 347.50Q251 364 227 366Q176 371 129.50 310.50Q83 250 75 172Q70 120 96 86.50Q122 53 173 49Q244 44 308.50 90.50Q373 137 412 231Q415 235 423 233.50Q431 232 438 225Q445 218 442 212Q347-17 145-9Q70-5 27.50 49Q-15 103-10 176Q-4 271 66 348Q136 425 230 424Z"  horiz-adv-x="409" vert-adv-y="1000"  />

      
      <glyph glyph-name="uni64" unicode="&#x64;" d="M396 681Q403 688 421 688.50Q439 689 456.50 681Q474 673 471 661Q403 486 345 270Q287 54 342 55Q374 55 414 108Q454 161 482 231Q485 236 492.50 234Q500 232 507 225.50Q514 219 512 213Q474 123 422.50 61Q371-1 311-2Q272-3 252 31Q232 65 240 120Q215 66 174.50 28.50Q134-9 83-10Q20-11-5.50 40.50Q-31 92-16.50 166Q-2 240 44 305Q71 343 107 368.50Q143 394 177 403.50Q211 413 245 415Q279 417 301 408Q346 561 396 681M285 353Q239 367 188 342.50Q137 318 102 257Q72 206 64.50 145Q57 84 82 59Q111 32 158 74.50Q205 117 239 203Q262 261 285 353Z"  horiz-adv-x="479" vert-adv-y="1000"  />

      
      <glyph glyph-name="uni65" unicode="&#x65;" d="M237 423Q286 421 314.50 394.50Q343 368 344.50 333Q346 298 330 261Q300 201 233 179Q166 157 77 181Q69 128 93.50 92Q118 56 169 49Q209 43 253 56.50Q297 70 344 115Q391 160 421 231Q424 235 431.50 233.50Q439 232 446 225Q453 218 451 212Q358-20 156-10Q55-4 14.50 65.50Q-26 135 0 227Q26 320 93 374Q160 428 237 423M224 366Q184 367 142.50 324.50Q101 282 85 224Q214 199 254 277Q273 307 266.50 336.50Q260 366 224 366Z"  horiz-adv-x="418" vert-adv-y="1000"  />

      
      <glyph glyph-name="uni66" unicode="&#x66;" d="M141 609Q163 646 193 667Q223 688 251 688.50Q279 689 301.50 677Q324 665 334 635Q344 605 337 566Q326 506 299 452Q272 398 234.50 358.50Q197 319 159.50 290.50Q122 262 81 241Q61 171 53 129Q59 128 81 124.50Q103 121 112 120Q121 119 142 117.50Q163 116 174.50 118Q186 120 204.50 123.50Q223 127 235.50 136Q248 145 263 157Q278 169 289.50 188Q301 207 311 231Q314 235 322 233.50Q330 232 337 225.50Q344 219 342 213Q322 161 293.50 130Q265 99 234 90Q203 81 167.50 79Q132 77 100 84Q136 48 149.50-5.50Q163-59 155.50-111Q148-163 127-209Q86-293 12-293Q-80-293-72-177Q-65-23-13 183Q63 474 141 609M203 581Q154 490 98 304Q235 417 268 575Q278 618 256 625Q233 632 206 587Q205 584 203 581M40 74Q4-88 1-177Q0-233 25-231Q48-230 67-186L72-172Q87-128 91.50-85.50Q96-43 84.50 2.50Q73 48 40 74Z"  horiz-adv-x="309" vert-adv-y="1000"  />

      
      <glyph glyph-name="uni67" unicode="&#x67;" d="M234 423Q343 435 419 367Q426 357 406 337Q386 317 376 327Q318 373 251 365Q206 361 164.50 327.50Q123 294 94 239Q66 186 60.50 134.50Q55 83 76 60Q103 34 149.50 73Q196 112 236 193Q262 245 283 318Q290 332 322.50 323.50Q355 315 353 301Q278 18 273 2Q398 52 471 231Q474 235 481.50 233.50Q489 232 496 225.50Q503 219 501 213Q453 105 398 43.50Q343-18 257-57Q223-194 181.50-243.50Q140-293 75-295Q30-297 5-273Q-20-249-16-204Q-13-179 1.50-155.50Q16-132 34-116Q52-100 83-82Q114-64 135-53.50Q156-43 192-28Q195-19 212 36.50Q229 92 239 125Q166-7 79-9Q17-11-9 36.50Q-35 84-22 154Q-9 224 34 290Q72 349 125 383.50Q178 418 234 423M178-87Q88-133 66-179Q46-217 68-231Q90-245 120-218Q146-194 160-149L178-87Z"  horiz-adv-x="468" vert-adv-y="1000"  />

      
      <glyph glyph-name="uni68" unicode="&#x68;" d="M145 682Q153 689 171.50 689.50Q190 690 207 681Q224 672 220 661Q189 592 104 302Q192 424 271 425Q327 426 346 386Q365 346 347 282Q299 106 296 88Q290 46 312 47Q344 48 387.50 102.50Q431 157 460 231Q463 235 471 233.50Q479 232 486 225Q493 218 490 212Q396-6 290-10Q239-11 223 16.50Q207 44 214 96Q217 118 237.50 192Q258 266 262 285Q268 305 269.50 319.50Q271 334 263.50 346.50Q256 359 237 359Q206 359 163.50 319Q121 279 88 225Q60 124 37 13Q35 4 11.50-1Q-12-6-32-1Q-52 4-48 20Q-9 201 45 386.50Q99 572 145 682Z"  horiz-adv-x="458" vert-adv-y="1000"  />

      
      <glyph glyph-name="uni69" unicode="&#x69;" d="M116 485Q96 485 83.50 498.50Q71 512 73 533Q75 555 90 568Q105 581 126 581Q147 580 159 567Q171 554 170 533Q168 511 153 498Q138 485 116 485M40-9Q-10-10-25.50 20Q-41 50-28 109Q-10 185 52 407Q60 424 94 418.50Q128 413 129 397Q66 173 53 118Q44 87 46 66.50Q48 46 66 47Q102 48 148 104.50Q194 161 221 230Q225 235 233 234Q241 233 248 225.50Q255 218 252 211Q235 172 215 137Q195 102 168 67Q141 32 107.50 11.50Q74-9 40-9Z"  horiz-adv-x="219" vert-adv-y="1000"  />

      
      <glyph glyph-name="uni6a" unicode="&#x6a;" d="M111 485Q92 485 79.50 498.50Q67 512 68 533Q70 555 85.50 568Q101 581 122 581Q143 580 155 567Q167 554 165 533Q164 511 148.50 498Q133 485 111 485M-183-295Q-235-297-258-265Q-281-233-264-186Q-253-137-202-101Q-151-65-69-29Q-28 107 47 409Q54 424 89.50 418Q125 412 123 397Q62 186 15 2Q144 54 216 231Q219 235 226.50 233.50Q234 232 241 225.50Q248 219 246 213Q200 106 143 44Q86-18-1-57Q-24-152-52.50-205Q-81-258-110.50-276Q-140-294-183-295M-173-235Q-153-234-131.50-212Q-110-190-98-149L-80-87Q-168-133-192-179Q-205-205-198.50-220.50Q-192-236-173-235Z"  horiz-adv-x="213" vert-adv-y="1000"  />

      
      <glyph glyph-name="uni6b" unicode="&#x6b;" d="M425 231Q428 235 436 233.50Q444 232 451 225.50Q458 219 456 212Q413 116 353 53Q293-10 227-10Q111-10 119 192Q186 218 228.50 253.50Q271 289 274.50 314.50Q278 340 263 355Q227 379 158.50 325Q90 271 70 193Q43 87 28 16Q24 4 2.50-1.50Q-19-7-37.50-1Q-56 5-53 20Q-30 117-1 224Q28 331 43.50 385Q59 439 93 553.50Q127 668 131 681Q137 689 154.50 689.50Q172 690 190 681.50Q208 673 206 661Q200 639 157.50 502Q115 365 103 317Q129 357 163.50 383Q198 409 230 417.50Q262 426 290 423Q318 420 333 404Q353 384 355 352.50Q357 321 341 288Q325 255 284.50 223Q244 191 186 171Q181 49 247 48Q293 48 340.50 95Q388 142 425 231Z"  horiz-adv-x="423" vert-adv-y="1000"  />

      
      <glyph glyph-name="uni6c" unicode="&#x6c;" d="M183 667Q228 700 270 688Q312 676 325.50 628.50Q339 581 314 504Q250 333 80 243Q40 56 121 48Q152 44 183 61.50Q214 79 238 110Q262 141 279.50 170.50Q297 200 311 231Q314 235 322 233.50Q330 232 337 225Q344 218 341 212Q316 158 295.50 122Q275 86 244.50 50.50Q214 15 176 0Q138-15 92-9Q47-4 22.50 25.50Q-2 55-6 105Q-10 155-3 210.50Q4 266 22 337Q51 452 93 542Q135 632 183 667M245 627Q208 630 155 493Q114 385 93 305Q180 373 225 473Q254 539 260.50 581.50Q267 624 245 627Z"  horiz-adv-x="309" vert-adv-y="1000"  />

      
      <glyph glyph-name="uni6d" unicode="&#x6d;" d="M490-10Q442-11 423.50 16Q405 43 413 91Q416 111 424.50 145Q433 179 444 221Q455 263 460 284Q480 361 444 361Q411 360 363.50 308Q316 256 299 201Q291 170 275.50 103Q260 36 253 14Q249 4 228.50-0.50Q208-5 189.50 0Q171 5 171 16Q211 174 239 287Q256 359 219 359Q191 360 150.50 315Q110 270 80 209Q56 123 30 11Q27 1 5-2Q-17-5-36.50 2Q-56 9-53 24Q5 232 48 408Q53 419 72.50 421Q92 423 109.50 415.50Q127 408 126 395Q122 379 114 348.50Q106 318 100 300Q130 352 171.50 389Q213 426 257 425Q298 424 316.50 392Q335 360 323 310Q400 426 478 425Q576 424 548 294Q545 281 538.50 258.50Q532 236 525 214Q518 192 511 167Q504 142 499.50 121Q495 100 493.50 83Q492 66 496.50 56.50Q501 47 511 47Q544 48 587.50 104Q631 160 659 231Q663 235 671 234Q679 233 686 226Q693 219 690 212Q673 173 653.50 138Q634 103 608 68Q582 33 551.50 12Q521-9 490-10Z"  horiz-adv-x="657" vert-adv-y="1000"  />

      
      <glyph glyph-name="uni6e" unicode="&#x6e;" d="M276 425Q330 424 347.50 384.50Q365 345 349 280Q344 256 328 204.50Q312 153 306 128Q302 109 300 99Q298 89 297.50 75Q297 61 301.50 54Q306 47 316 47Q348 47 390.50 101Q433 155 464 231Q467 235 475 234Q483 233 490 226Q497 219 494 212Q477 172 457.50 137.50Q438 103 412.50 67.50Q387 32 356 11Q325-10 293-10Q205-10 218 83Q220 104 264 285Q283 359 241 359Q210 359 165 319.50Q120 280 86 228Q61 143 31 11Q28 4 14.50 0.50Q1-3-14.50-2.50Q-30-2-42 4Q-54 10-53 21Q-37 85-4.50 206Q28 327 48 407Q56 425 90.50 420.50Q125 416 126 395L101 301Q136 349 183 387.50Q230 426 276 425Z"  horiz-adv-x="462" vert-adv-y="1000"  />

      
      <glyph glyph-name="uni6f" unicode="&#x6f;" d="M233 425Q314 427 347.50 373Q381 319 369 244Q357 169 315 99Q415 89 472 231Q475 235 483.50 233.50Q492 232 499 225.50Q506 219 503 212Q425 28 284 64Q217-9 124-9Q53-9 13 38Q-27 85-9 186Q8 286 77 354Q146 422 233 425M225 366Q174 363 130.50 305Q87 247 76 183Q55 49 137 49Q183 49 223 94Q208 115 221.50 135Q235 155 254 147Q272 185 281.50 223.50Q291 262 290.50 295Q290 328 273.50 348Q257 368 225 366Z"  horiz-adv-x="470" vert-adv-y="1000"  />

      
      <glyph glyph-name="uni70" unicode="&#x70;" d="M261 423Q318 422 345 384Q372 346 369.50 292.50Q367 239 351 186.50Q335 134 312 100Q363 91 402.50 121Q442 151 474 231Q477 235 485 233.50Q493 232 500 225Q507 218 505 212Q462 109 404.50 77Q347 45 284 66Q241 19 189.50 1.50Q138-16 96-5Q54 6 28 39Q18-9-8-117.50Q-34-226-44-278Q-47-287-66-289.50Q-85-292-102.50-287Q-120-282-119-273Q-47 39 45 407Q48 418 67.50 420.50Q87 423 105 415Q123 407 122 392L110 355Q140 387 182 405.50Q224 424 261 423M226 363Q194 363 156.50 341Q119 319 94 290Q69 196 43 90Q71 48 127 49Q183 50 219 93Q207 106 210 120.50Q213 135 226 143.50Q239 152 249 144Q266 178 275.50 215.50Q285 253 286 286.50Q287 320 272 341.50Q257 363 226 363Z"  horiz-adv-x="472" vert-adv-y="1000"  />

      
      <glyph glyph-name="uni71" unicode="&#x71;" d="M246 425Q289 428 336 413Q383 398 418 365Q424 356 406.50 336.50Q389 317 378 322Q321 369 260 367Q198 366 148 314.50Q98 263 75 194Q41 94 74 61Q101 34 152 77Q185 106 217 160Q258 234 278 316Q281 326 299.50 326Q318 326 334.50 318Q351 310 350 300Q338 254 306.50 135.50Q275 17 261-41Q277-23 313.50 12Q350 47 376 74Q402 101 432.50 144Q463 187 480 231Q483 235 491 233.50Q499 232 506 225Q513 218 510 212Q490 164 462 121.50Q434 79 419 61.50Q404 44 372 10Q369 7 341-21.50Q313-50 304-61Q295-72 275.50-98.50Q256-125 245-151.50Q234-178 227-210L217-275Q215-282 206-286Q197-290 185.50-290.50Q174-291 162.50-289Q151-287 144-282.50Q137-278 138-271Q140-263 159-162Q178-61 195 6Q212 73 232 122Q202 66 162 29Q122-8 77-9Q19-11-7.50 32.50Q-34 76-23 146Q-6 257 73 338.50Q152 420 246 425Z"  horiz-adv-x="477" vert-adv-y="1000"  />

      
      <glyph glyph-name="uni72" unicode="&#x72;" d="M16 175Q12 171 4 172.50Q-4 174-11 180Q-18 186-15 191Q34 298 66 420Q26 476 54 512Q72 535 98 528Q131 518 126 467Q124 458 122 448Q132 437 150 419Q168 401 180.50 388Q193 375 207 358Q221 341 227.50 327.50Q234 314 233.50 299Q233 284 223 271Q142 171 142 105Q142 50 188 50Q231 48 281.50 94Q332 140 370 231Q373 235 381 233Q389 231 396 224.50Q403 218 401 212Q305-13 162-9Q111-8 84 22.50Q57 53 57 100Q56 170 140 290Q147 300 148 311Q149 322 141.50 334.50Q134 347 129 354Q124 361 110.50 375.50Q97 390 95 393Q65 277 16 175Z"  horiz-adv-x="368" vert-adv-y="1000"  />

      
      <glyph glyph-name="uni73" unicode="&#x73;" d="M130-10Q78-9 48 30Q18 69 33 131Q39 148 60.50 149.50Q82 151 84 139Q75 97 90.50 73Q106 49 136 49Q176 51 195 83Q175 99 182.50 125Q190 151 211 148Q213 182 183 268Q153 354 153 402Q90 340 16 175Q12 170 4.50 171.50Q-3 173-10 179.50Q-17 186-15 191Q64 376 141 442Q181 478 216 464Q241 454 233 429Q231 420 223 411Q226 368 240.50 321Q255 274 267 244.50Q279 215 286 172.50Q293 130 281 97Q368 97 423 231Q426 235 434 233.50Q442 232 449 225Q456 218 453 212Q385 49 264 57Q243 25 207 7Q171-11 130-10Z"  horiz-adv-x="420" vert-adv-y="1000"  />

      
      <glyph glyph-name="uni74" unicode="&#x74;" d="M98-10Q68-10 46.50-1.50Q25 7 13.50 26.50Q2 46-5 66.50Q-12 87-10.50 120Q-9 153-7 178.50Q-5 204 4 244Q13 284 18.50 308Q24 332 35 372L2 372Q-11 380-7.50 399.50Q-4 419 7 425L50 425Q86 544 130 655Q138 669 173.50 661.50Q209 654 206 638Q178 565 134 425L230 425Q242 417 238 395.50Q234 374 224 372L120 372Q92 274 80 219Q44 50 116 49Q165 48 215.50 104Q266 160 294 231Q297 235 305 233.50Q313 232 320 225Q327 218 324 211Q234-7 98-10Z"  horiz-adv-x="291" vert-adv-y="1000"  />

      
      <glyph glyph-name="uni75" unicode="&#x75;" d="M296 406Q303 423 339 417.50Q375 412 374 393Q359 349 346 302.50Q333 256 318 194Q303 132 304 93Q305 54 325 54Q357 53 398.50 105.50Q440 158 469 230Q472 235 480 233.50Q488 232 495 225Q502 218 499 212Q444 97 401 51Q350-3 297-2Q257-2 241.50 36Q226 74 238 119Q158-15 54-8Q9-7-12 25.50Q-33 58-24 111Q-17 158-4 209Q9 260 26 317Q43 374 50 403Q54 415 73.50 418Q93 421 110.50 414Q128 407 127 396Q122 375 99 288Q76 201 65 151Q54 113 57.50 82Q61 51 89 50Q123 50 167 90Q211 130 235 198Q255 256 296 406Z"  horiz-adv-x="467" vert-adv-y="1000"  />

      
      <glyph glyph-name="uni76" unicode="&#x76;" d="M58 403Q64 415 83.50 417.50Q103 420 119.50 413Q136 406 135 395Q131 384 121.50 356Q112 328 106 309.50Q100 291 90.50 261Q81 231 76 210Q71 189 65 163Q59 137 58.50 119.50Q58 102 59 85.50Q60 69 67 60.50Q74 52 86 51Q126 48 171 96Q157 112 161.50 129Q166 146 180 150.50Q194 155 207 146Q278 253 289 403Q294 422 331.50 419.50Q369 417 369 392Q347 208 262 100Q316 88 366.50 118.50Q417 149 450 231Q453 236 460.50 234.50Q468 233 475 226Q482 219 479 213Q455 157 423 121Q391 85 359 72.50Q327 60 293 57.50Q259 55 230 66Q151-14 59-8Q14-6-8 24Q-30 54-23 111Q-18 148-7.50 190.50Q3 233 12 261.50Q21 290 36.50 336.50Q52 383 58 403Z"  horiz-adv-x="447" vert-adv-y="1000"  />

      
      <glyph glyph-name="uni77" unicode="&#x77;" d="M307-9Q264-8 243.50 21Q223 50 228 99Q154-12 52-8Q8-6-12.50 25.50Q-33 57-25 113Q-20 150-9 192.50Q2 235 10 261.50Q18 288 34.50 337Q51 386 56 402Q63 415 83 417Q103 419 119.50 412Q136 405 134 394Q80 237 61 141Q57 122 55.50 108Q54 94 55.50 80.50Q57 67 65.50 59Q74 51 88 50Q122 47 166 89Q210 131 237 206Q247 241 269.50 308Q292 375 300 401Q305 412 324.50 415.50Q344 419 361.50 413Q379 407 378 395Q373 379 355.50 330Q338 281 326.50 241.50Q315 202 305 152Q297 116 297 94Q297 72 304 61.50Q311 51 326 51Q372 51 408 97Q394 113 398.50 129.50Q403 146 416.50 150Q430 154 443 145Q469 176 497 259.50Q525 343 526 404Q527 414 547 418Q567 422 586.50 415.50Q606 409 606 394Q603 321 569 230.50Q535 140 498 100Q551 88 602 117.50Q653 147 688 231Q691 235 699 233.50Q707 232 713.50 225Q720 218 717 211Q693 155 661 119.50Q629 84 597 71.50Q565 59 530.50 56.50Q496 54 467 66Q396-10 307-9Z"  horiz-adv-x="684" vert-adv-y="1000"  />

      
      <glyph glyph-name="uni78" unicode="&#x78;" d="M486 230Q489 235 497 233.50Q505 232 512 225Q519 218 516 212Q481 128 430.50 66.50Q380 5 327-6Q242-23 211 67Q208 75 189 129L86 2Q73-13 30-9Q3-7 5 3Q6 5 8 8L165 199Q147 269 136 305Q123 353 111 352Q105 352 97 340Q87 325 76 302.50Q65 280 47 241Q29 202 15 174Q12 171 4 173Q-4 175-11 181Q-18 187-15 192Q-1 219 19.50 268.50Q40 318 53 346Q66 374 87 398Q108 422 130 424Q172 428 188 401Q204 374 232 274L337 403Q351 421 393 414Q419 409 417 400L416 397L256 202Q260 188 266.50 161.50Q273 135 277 120Q288 84 300 66Q312 48 332 51Q372 57 412 103Q452 149 486 230Z"  horiz-adv-x="483" vert-adv-y="1000"  />

      
      <glyph glyph-name="uni79" unicode="&#x79;" d="M65-295Q20-297-5-273Q-30-249-26-204Q-23-179-8.50-155.50Q6-132 24-115.50Q42-99 72.50-81.50Q103-64 124.50-53.50Q146-43 181-28Q192 1 224 116Q182 47 131 16Q80-15 36-7Q-7-2-24 30Q-41 62-29 115Q-19 161 9.50 258.50Q38 356 45 403Q50 420 86.50 418Q123 416 122 396Q114 358 88.50 258Q63 158 57 133Q47 98 50.50 75.50Q54 53 76 50Q109 46 152 89.50Q195 133 226 202Q260 279 291 406Q298 424 334 417.50Q370 411 368 394Q269 24 263 2Q322 28 374.50 85.50Q427 143 461 231Q464 235 472 233.50Q480 232 487 225.50Q494 219 492 213Q447 106 389.50 45Q332-16 247-57Q228-130 208.50-177.50Q189-225 166-250Q143-275 120-284.50Q97-294 65-295M82-234Q122-223 150-149Q151-146 168-87Q83-132 59-174Q42-202 49.50-220.50Q57-239 82-234Z"  horiz-adv-x="459" vert-adv-y="1000"  />

      
      <glyph glyph-name="uni7a" unicode="&#x7a;" d="M138 448Q158 413 207.50 397Q257 381 309 391Q337 401 358.50 395Q380 389 383 374.50Q386 360 374 343Q358 321 313 257Q268 193 234.50 150.50Q201 108 161 69Q188 73 224.50 60Q261 47 288 48Q334 50 382 98.50Q430 147 464 230Q467 235 475 233.50Q483 232 490 225Q497 218 494 212Q454 114 394.50 52Q335-10 273-11Q238-12 195 4Q152 20 115 14Q72-24 36-8Q9 3 14 30Q20 61 71 79Q171 182 274 334Q229 328 182.50 344Q136 360 110 397Q84 318 15 175Q12 170 4 171.50Q-4 173-11 179.50Q-18 186-16 191Q48 334 80 433Q47 479 71 512Q88 536 113 529Q146 519 140 461Q139 455 138 448Z"  horiz-adv-x="462" vert-adv-y="1000"  />

      
      <glyph glyph-name="uni7b" unicode="&#x7b;" d="M216-148Q182-165 136-154.50Q90-144 77-109Q52-47 85 63Q92 87 107 128.50Q122 170 126 189Q130 208 115.50 219.50Q101 231 76 233Q65 234 62 247Q59 260 65.50 273Q72 286 83 286Q150 286 166 330Q174 350 195 461Q216 572 233 606Q283 703 399 676Q410 673 410.50 660Q411 647 403 635Q395 623 386 624Q355 627 335.50 615.50Q316 604 302 574Q287 544 266.50 438Q246 332 237 310Q216 258 168 254Q209 227 198 174Q194 153 178 113Q162 73 156 52Q127-44 153-88Q170-112 216-100Q229-97 231-115Q233-139 216-148Z"  horiz-adv-x="424" vert-adv-y="1000"  />

      
      <glyph glyph-name="uni7c" unicode="&#x7c;" d="M115-268Q111-284 91-288.50Q71-293 54.50-285Q38-277 42-261L279 679Q283 694 302.50 698.50Q322 703 339 696Q356 689 353 677L115-268Z"  horiz-adv-x="423" vert-adv-y="1000"  />

      
      <glyph glyph-name="uni7d" unicode="&#x7d;" d="M60-154Q49-151 48.50-138Q48-125 56-113Q64-101 73-102Q133-108 157-52Q172-22 192.50 84Q213 190 222 212Q243 264 292 268Q252 294 261 348Q265 369 281 408.50Q297 448 303 470Q331 565 306 610Q289 634 243 621Q233 620 229 630Q225 640 229 652.50Q233 665 243 670Q277 687 323 676.50Q369 666 382 631Q407 569 374 458Q367 435 352 393.50Q337 352 333 333Q329 314 343.50 302.50Q358 291 383 289Q394 288 397 275Q400 262 393.50 249Q387 236 376 236Q310 236 293 192Q286 174 265 62Q244-50 226-84Q176-181 60-154Z"  horiz-adv-x="470" vert-adv-y="1000"  />

      
      <glyph glyph-name="uni7e" unicode="&#x7e;" d="M314 254Q283 253 247 275.50Q211 298 192 298Q162 299 134 263Q129 258 120 260.50Q111 263 104.50 271.50Q98 280 101 288Q112 314 136 334Q160 354 194 355Q226 356 260.50 333.50Q295 311 315 311Q347 311 374 346Q379 351 387.50 348.50Q396 346 402.50 337.50Q409 329 406 321Q395 295 371.50 275Q348 255 314 254Z"  horiz-adv-x="495" vert-adv-y="1000"  />

      
      <glyph glyph-name="unia1" unicode="&#xa1;" d="M204 395.50Q204 395.50 211 402.25Q218 409 236 409Q254 409 266 395.50Q278 382 277 363Q275 345 261 332Q247 319 229 319Q209 319 197.50 332Q186 345 188 364Q190 382 204 395.50M232 225Q212 156 165-32Q118-220 105-265Q96-296 61-290Q34-286 27-269L27-259Q56-168 104.50 14.50Q153 197 163 233Q170 249 188.50 251.50Q207 254 221 245.50Q235 237 232 225Z"  horiz-adv-x="346" vert-adv-y="1000"  />

      
      <glyph glyph-name="unia2" unicode="&#xa2;" d="M407 189Q336 108 237 103Q232 82 223 44Q214 6 212-1Q209-16 183-16Q158-16 158 0Q158 2 159 5Q163 24 172 58.50Q181 93 184 107Q110 119 79 176Q48 233 60 304Q73 393 138 469Q203 545 288 551Q292 564 298.50 591Q305 618 308 632Q313 652 342 650Q365 648 365 634Q365 633 365 632Q362 617 355 590Q348 563 344 549Q390 541 411.50 510Q433 479 428.50 443.50Q424 408 400 381Q385 363 360 372Q340 382 347 397Q366 426 363 454Q360 482 330 491Q262 214 250 161Q328 167 379 223Q385 229 395 223Q405 217 409 207Q413 197 407 189M133 285Q124 182 198 166L274 491Q220 482 180.50 422.50Q141 363 133 285Z"  horiz-adv-x="484" vert-adv-y="1000"  />

      
      <glyph glyph-name="unia3" unicode="&#xa3;" d="M105-11Q91-22 76-15Q61-8 57.50 6.50Q54 21 65 34Q151 105 163 297L109 297Q97 297 93 310.50Q89 324 94.50 337Q100 350 113 350L165 350Q167 400 171 437Q175 474 187.50 517.50Q200 561 220.50 588.50Q241 616 277 634.50Q313 653 362 653Q431 653 469.50 603Q508 553 485 470Q480 451 452 450Q427 449 426 463Q426 465 426 467Q442 528 422.50 560.50Q403 593 360 592Q333 592 312.50 582.50Q292 573 279 553Q266 533 257.50 513Q249 493 245 461Q241 429 239 406.50Q237 384 236 349Q294 349 323 350Q333 350 336 337Q339 324 332.50 310.50Q326 297 314 297L234 297Q224 166 179 80Q211 85 252 74Q260 72 278.50 65.50Q297 59 306.50 56.50Q316 54 332.50 51Q349 48 360 49.50Q371 51 385.50 54.50Q400 58 413 68Q426 78 439 93Q446 101 458.50 96Q471 91 476.50 80Q482 69 475 57Q446 17 410.50 3Q375-11 348.50-6.50Q322-2 284 8Q246 18 226 19Q199 19 180 19.50Q161 20 142.50 13Q124 6 105-11Z"  horiz-adv-x="552" vert-adv-y="1000"  />

      
      <glyph glyph-name="unia4" unicode="&#xa4;" d="M180 564Q196 542 209 522Q262 551 321 550Q380 549 424 516Q456 550 467 563Q489 590 517 575Q538 563 533 545L530 540Q520 529 497 503.50Q474 478 464 467Q492 407 477.50 333Q463 259 415 205Q467 133 475 121Q487 103 462.50 85.50Q438 68 425 85Q415 99 394 127Q373 155 366 164Q321 131 261.50 125Q202 119 158 143Q129 111 106 83Q97 72 81.50 79Q66 86 59.50 100Q53 114 61 125L109 181Q60 245 75.50 335.50Q91 426 157 486L120 542Q108 558 128 574Q151 593 173 572Q177 569 180 564M318 487Q250 488 205 444Q160 400 148 332Q137 267 163 228Q189 189 240 188Q307 187 352 231.50Q397 276 409 343Q420 408 394 447Q368 486 318 487Z"  horiz-adv-x="599" vert-adv-y="1000"  />

      
      <glyph glyph-name="unia5" unicode="&#xa5;" d="M439 642Q449 654 464.50 651Q480 648 492 634.50Q504 621 497 610Q390 436 285 307L348 307Q359 307 362.50 295Q366 283 360 270.50Q354 258 341 258L254 258L242 212L326 212Q341 213 341 192Q340 169 321 164L317 163Q292 162 230 162Q222 133 210.50 84Q199 35 193 10Q182-17 151-13Q126-10 125 7Q124 10 125 13Q140 66 161 163Q149 164 123.50 164.50Q98 165 86 165Q75 165 71.50 177.50Q68 190 74.50 201.50Q81 213 93 213Q107 213 132.50 212.50Q158 212 171 212L181 258Q131 260 98 260Q82 261 85 283.50Q88 306 104 309L109 309Q121 308 144.50 308Q168 308 179 307Q129 470 102 618Q101 634 117.50 643.50Q134 653 152 649Q170 645 173 628Q199 464 239 343Q344 473 439 642Z"  horiz-adv-x="515" vert-adv-y="1000"  />

      
      <glyph glyph-name="unia6" unicode="&#xa6;" d="M239 292Q233 269 201 270Q172 271 167 289Q166 294 167 299L262 680Q266 695 286 699Q306 703 323 695.50Q340 688 336 674L239 292M98-268Q93-289 60-289Q28-289 24-271L24-263L121 120Q125 136 145 141Q165 146 181.50 137.50Q198 129 194 114L98-268Z"  horiz-adv-x="389" vert-adv-y="1000"  />

      
      <glyph glyph-name="unia7" unicode="&#xa7;" d="M186.50 671Q186.50 671 204.75 685Q223 699 278 698Q333 697 371.50 667.50Q410 638 422 585Q424 567 397.50 560.50Q371 554 366 569Q361 593 345 610.50Q329 628 308 633.50Q287 639 267 637.50Q247 636 232.50 622Q218 608 216 586Q214 561 231.50 537Q249 513 275 492Q301 471 327 447.50Q353 424 371 391Q389 358 388 320Q385 238 307 192Q344 120 303.50 53Q263-14 171-13Q108-12 69 23Q30 58 30 115Q32 130 58.50 131.50Q85 133 90 115Q102 46 172 46Q250 46 252 128Q253 155 236.50 181Q220 207 196 229.50Q172 252 148.50 276Q125 300 109.50 332.50Q94 365 96 402Q98 437 119.50 464.50Q141 492 176 503Q142 544 146 596Q150 643 186.50 671M220 460Q198 457 181 441Q164 425 163 397Q162 370 178 346Q194 322 229.50 287.50Q265 253 276 241Q317 268 319 330Q319 351 310.50 370Q302 389 282.50 407.50Q263 426 253 434.50Q243 443 220 460Z"  horiz-adv-x="490" vert-adv-y="1000"  />

      
      <glyph glyph-name="unia8" unicode="&#xa8;" d="M99 741Q80 741 68 754.50Q56 768 57 785Q58 802 70.50 814.50Q83 827 103 828Q121 828 133 815Q145 802 144 784Q143 767 130 754Q117 741 99 741M235 741Q216 741 205 754.50Q194 768 195 785Q195 802 207.50 814.50Q220 827 238 828Q258 828 270 815Q282 802 282 784Q281 767 268 754Q255 741 235 741Z"  horiz-adv-x="334" vert-adv-y="1000"  />

      
      <glyph glyph-name="unia9" unicode="&#xa9;" d="M336-164Q197-166 118.50-70.50Q40 25 60 179Q80 328 186.50 435Q293 542 456 545Q599 547 679 451Q759 355 740 201Q730 130 699.50 66Q669 2 620-49.50Q571-101 497.50-132Q424-163 336-164M338-103Q476-103 561.50-15.50Q647 72 666 204Q684 332 626 408Q568 484 460 485Q326 486 242 397Q158 308 138 176Q120 49 177-27.50Q234-104 338-103M375 20Q310 20 277.50 64.50Q245 109 251 173Q257 253 316.50 316.50Q376 380 453 379Q500 378 522.50 351.50Q545 325 539 291.50Q533 258 506 236Q496 229 484.50 229.50Q473 230 465 237Q457 244 461 253Q483 277 480.50 302.50Q478 328 449 328Q403 330 364.50 284.50Q326 239 320 168Q316 123 334 95Q352 67 393 67Q444 67 487 102Q492 105 499 99.50Q506 94 509 85.50Q512 77 508 71Q449 18 375 20Z"  horiz-adv-x="809" vert-adv-y="1000"  />

      
      <glyph glyph-name="uniab" unicode="&#xab;" d="M203 141Q179 166 136 208Q93 250 86 257Q67 277 70 297.50Q73 318 93 330Q182 382 251 431Q264 440 280 432Q296 424 299 409.50Q302 395 289 384Q218 337 144 291Q233 200 255 175Q263 167 254 154Q245 141 230.50 136Q216 131 203 141M410 141Q386 166 343 208Q300 250 293 257Q275 277 277.50 297.50Q280 318 300 330Q376 374 459 431Q472 440 487.50 432Q503 424 506.50 409.50Q510 395 497 384Q409 327 351 291Q447 192 463 175Q470 167 461 154Q452 141 437.50 136Q423 131 410 141Z"  horiz-adv-x="573" vert-adv-y="1000"  />

      
      <glyph glyph-name="uniac" unicode="&#xac;" d="M384 182Q382 173 366.50 170Q351 167 338 172Q325 177 327 187L346 262L116 262Q104 262 100.50 276Q97 290 104 304.50Q111 319 124 319L392 319Q404 319 410 309.50Q416 300 412 287L384 182Z"  horiz-adv-x="501" vert-adv-y="1000"  />

      
      <glyph glyph-name="uniae" unicode="&#xae;" d="M334-164Q194-166 117-70.50Q40 25 60 179Q80 327 189.50 434.50Q299 542 464 545Q607 547 684.50 451Q762 355 743 201Q733 130 701.50 65.50Q670 1 619-50Q568-101 494-132Q420-163 334-164M336-103Q473-103 561.50-15Q650 73 669 204Q687 332 631.50 408Q576 484 468 485Q332 486 244.50 396.50Q157 307 138 176Q120 49 176.50-27.50Q233-104 336-103M428 19Q413 37 406.50 64Q400 91 397.50 122.50Q395 154 392 167Q386 198 351 197Q306 40 301 29Q296 21 282 20.50Q268 20 255 28Q242 36 246 46Q265 96 286 178.50Q307 261 327 306Q347 354 384 381Q421 408 469 405Q518 403 537.50 372Q557 341 545 304Q534 271 497 243.50Q460 216 425 209Q449 196 456.50 132Q464 68 482 45Q489 34 478 24.50Q467 15 452 14Q437 13 428 19M362 235Q409 239 443 262.50Q477 286 487 314Q501 353 461 355Q394 359 362 235Z"  horiz-adv-x="812" vert-adv-y="1000"  />

      
      <glyph glyph-name="uniaf" unicode="&#xaf;" d="M62 756Q50 756 46 768.50Q42 781 48 793.50Q54 806 67 806Q199 804 254 805Q265 805 268.50 792.50Q272 780 266 767.50Q260 755 249 755Q216 755 157.50 755.50Q99 756 62 756Z"  horiz-adv-x="296" vert-adv-y="1000"  />

      
      <glyph glyph-name="unib0" unicode="&#xb0;" d="M227 659Q287 659 324.50 617.50Q362 576 354 517Q346 456 299 416.50Q252 377 187 377Q124 377 86.50 418.50Q49 460 58 519Q67 580 113 619.50Q159 659 227 659M217 602Q181 602 156 579Q131 556 126 520Q119 485 139 460Q159 435 193 435Q231 435 258 460.50Q285 486 287 521Q291 556 271 579Q251 602 217 602Z"  horiz-adv-x="421" vert-adv-y="1000"  />

      
      <glyph glyph-name="unib1" unicode="&#xb1;" d="M399 354Q412 354 416 340Q420 326 412.50 311.50Q405 297 392 297L288 297L263 209Q260 199 243.50 196.50Q227 194 213 200Q199 206 202 216L225 297L123 297Q111 297 107.50 311.50Q104 326 111 340.50Q118 355 131 355L241 354L270 457Q274 471 290.50 473Q307 475 320.50 467Q334 459 331 448L304 354L399 354M348 157Q361 157 365 143Q369 129 361.50 115Q354 101 341 101L72 100Q60 100 56.50 114Q53 128 60 142.50Q67 157 81 157L348 157Z"  horiz-adv-x="483" vert-adv-y="1000"  />

      
      <glyph glyph-name="unib2" unicode="&#xb2;" d="M67 377Q53 376 50.50 396Q48 416 59 422Q95 444 130 481Q165 518 175 557Q180 582 171.50 595.50Q163 609 148 609Q135 611 124 599.50Q113 588 111 568Q110 561 97.50 559Q85 557 73 562Q61 567 62 577Q65 614 91 634Q117 654 155 654Q193 653 217 627.50Q241 602 234 556Q228 518 197.50 481Q167 444 134 422L219 423Q235 423 233.50 401Q232 379 219 379L67 377Z"  horiz-adv-x="287" vert-adv-y="1000"  />

      
      <glyph glyph-name="unib3" unicode="&#xb3;" d="M156 653Q197 654 220 636Q243 618 242 588Q241 540 189 523Q209 518 223 498Q237 478 232 449Q226 415 197.50 396.50Q169 378 131 379Q94 379 69.50 401Q45 423 51 463Q53 474 73.50 474Q94 474 94 462Q95 443 105.50 433.50Q116 424 133 424Q171 424 177 459Q181 503 132 503Q125 503 123 513Q121 523 125.50 533Q130 543 138 543Q162 542 176 552Q190 562 190 581Q190 608 155 608Q141 608 129.50 599.50Q118 591 114 577Q109 564 87.50 568.50Q66 573 70 589Q76 618 100.50 635Q125 652 156 653Z"  horiz-adv-x="292" vert-adv-y="1000"  />

      
      <glyph glyph-name="unib4" unicode="&#xb4;" d="M99 846Q111 863 142 852Q166 844 160 831Q159 829 158 827L91 745Q79 730 52 738Q29 745 39 762Q58 791 99 846Z"  horiz-adv-x="194" vert-adv-y="1000"  />

      
      <glyph glyph-name="unib6" unicode="&#xb6;" d="M627 693Q642 693 645.50 678.50Q649 664 641.50 650Q634 636 620 636L528 636L434 263Q397 121 349 56Q301-9 212-10Q160-11 126 8Q92 27 80.50 56.50Q69 86 72.50 121Q76 156 94 189Q105 199 120.50 198.50Q136 198 148.50 188Q161 178 156 167Q133 118 150 84Q167 50 217 51Q266 52 294.50 100.50Q323 149 345 235L450 636L368 636L301 384Q276 294 199 305Q151 312 126.50 373.50Q102 435 119 519Q138 617 185.50 655Q233 693 330 693L627 693Z"  horiz-adv-x="660" vert-adv-y="1000"  />

      
      <glyph glyph-name="unib7" unicode="&#xb7;" d="M138 322.50Q138 322.50 131.50 315.75Q125 309 106 309Q87 309 74 323Q61 337 61 355Q62 374 75.50 387Q89 400 108 400Q127 400 140 387Q153 374 152 355Q151 336 138 322.50Z"  horiz-adv-x="220" vert-adv-y="1000"  />

      
      <glyph glyph-name="unib8" unicode="&#xb8;" d="M125 30L172 26L123-52Q156-55 175-72Q194-89 194-111Q194-133 183-156Q161-194 116-204Q71-214 10-180Q5-174 6-164.50Q7-155 14.50-147.50Q22-140 30-145Q69-166 94-161Q119-156 131-134Q140-114 130-98Q120-82 89-85Q78-87 72.50-80.50Q67-74 73-61L125 30Z"  horiz-adv-x="244" vert-adv-y="1000"  />

      
      <glyph glyph-name="unib9" unicode="&#xb9;" d="M158 642Q165 653 180 654.50Q195 656 206.50 649Q218 642 215 633Q192 564 153 390Q150 382 135.50 380Q121 378 108.50 382.50Q96 387 98 397Q130 525 142 567Q115 542 77 525Q69 521 60.50 529.50Q52 538 51 548Q50 558 57 563Q117 591 158 642Z"  horiz-adv-x="267" vert-adv-y="1000"  />

      
      <glyph glyph-name="unibb" unicode="&#xbb;" d="M118 139Q105 130 89.50 138Q74 146 70.50 160.50Q67 175 80 186Q97 196 148.50 229.50Q200 263 226 279Q150 355 114 394Q107 402 116 415.50Q125 429 139.50 434Q154 439 167 429Q189 406 229 366.50Q269 327 284 312Q302 293 299.50 272.50Q297 252 277 240Q185 185 118 139M326 139Q313 130 297 138Q281 146 278 160.50Q275 175 288 186Q300 194 330 213Q360 232 386 249Q412 266 433 279Q357 355 322 394Q314 402 323 415.50Q332 429 346.50 434Q361 439 374 429Q396 406 436 366.50Q476 327 491 312Q510 293 507 272.50Q504 252 484 240Q377 175 326 139Z"  horiz-adv-x="573" vert-adv-y="1000"  />

      
      <glyph glyph-name="unibc" unicode="&#xbc;" d="M155-3Q140-18 114-2Q90 12 100 29Q101 31 103 33Q136 77 279.50 325Q423 573 476 637Q501 666 531 652Q553 642 547 624L542 616Q492 560 414.50 428Q337 296 264 168Q191 40 155-3M165 296Q163 288 148 286Q133 284 120 289.50Q107 295 109 304Q112 314 126.50 377.50Q141 441 152.50 484.50Q164 528 178 567Q137 520 93 500Q74 492 65.50 510.50Q57 529 70 538Q147 582 193 643Q206 655 221.50 655Q237 655 246.50 648Q256 641 253 633Q239 591 222 525.50Q205 460 188 388.50Q171 317 165 296M514 6Q513-1 499.50-4Q486-7 473.50-3.50Q461 0 462 9L474 78L351 78Q334 78 329 95Q324 112 333 121L516 346Q523 354 537 355.50Q551 357 561.50 351.50Q572 346 571 339L532 117L572 116Q584 116 581 98Q576 80 563 79L525 79L514 6M388 117L480 117L507 266L388 117Z"  horiz-adv-x="643" vert-adv-y="1000"  />

      
      <glyph glyph-name="unibd" unicode="&#xbd;" d="M148-3Q132-18 106-2Q81 13 92 30Q94 31 95 33Q128 77 271.50 325Q415 573 468 637Q493 666 524 652Q545 642 539 624L534 616Q484 560 406.50 428Q329 296 256 168Q183 40 148-3M157 296Q155 288 140 286Q125 284 112 289.50Q99 295 101 304Q104 314 118.50 377.50Q133 441 144.50 484.50Q156 528 170 567Q129 520 85 500Q66 492 57.50 510.50Q49 529 62 538Q139 582 185 643Q198 655 213.50 655Q229 655 238.50 648Q248 641 245 633Q231 591 214 525.50Q197 460 180 388.50Q163 317 157 296M407-1Q389 1 389 21.50Q389 42 405 52Q451 84 495.50 136.50Q540 189 556 238Q566 275 556.50 293.50Q547 312 526 314Q503 316 486.50 299Q470 282 471 251Q471 242 458.50 239Q446 236 434 241.50Q422 247 422 258Q423 309 455.50 337Q488 365 531 364Q574 362 600 330.50Q626 299 615 246Q605 192 560.50 135Q516 78 467 44L588 43Q597 43 599.50 32Q602 21 597 10.50Q592 0 583 0L407-1Z"  horiz-adv-x="674" vert-adv-y="1000"  />

      
      <glyph glyph-name="unibe" unicode="&#xbe;" d="M210-3Q200-13 182-8Q164-3 156.50 8.50Q149 20 157 33Q190 77 333.50 325Q477 573 530 637Q555 666 586 652Q607 642 601 624L596 616Q546 560 468.50 428Q391 296 318 168Q245 40 210-3M158 288Q114 287 85.50 316.50Q57 346 64 400Q65 409 78 412.50Q91 416 102.50 411.50Q114 407 112 397Q108 368 123 351.50Q138 335 161 336Q180 336 196.50 348Q213 360 218 383Q226 416 211 437Q196 458 155 459Q150 459 147.50 463Q145 467 144.50 472.50Q144 478 145 483.50Q146 489 149 493Q152 497 157 497Q231 502 236 563Q238 584 227 596.50Q216 609 198 610Q181 610 165 597Q149 584 142 560Q141 549 119 548Q97 547 97 561Q101 607 133 631Q165 655 205 654Q245 652 270.50 627Q296 602 291 560Q287 527 266 506Q245 485 217 480Q249 470 264 442.50Q279 415 273 380Q264 335 231 311Q198 287 158 288M568 6Q567-1 553.50-4Q540-7 527.50-3.50Q515 0 517 9L529 78L405 78Q388 78 383 95Q378 112 387 121L571 346Q577 354 591 355.50Q605 357 615.50 351.50Q626 346 625 339L587 117L626 116Q639 116 635 97Q630 80 618 79L580 79L568 6M442 117L535 117L562 266L442 117Z"  horiz-adv-x="698" vert-adv-y="1000"  />

      
      <glyph glyph-name="unibf" unicode="&#xbf;" d="M276 397Q276 397 283 403.50Q290 410 308 410Q326 410 338 396.50Q350 383 349 365Q347 347 333.50 334Q320 321 301 321Q281 321 269.50 334Q258 347 260 366Q262 384 276 397M321 233Q319 189 301.50 156Q284 123 251 85Q240 72 196 28.50Q152-15 130-47Q108-79 99-119Q78-207 148-225Q194-236 232.50-202.50Q271-169 281-103Q283-86 300.50-80.50Q318-75 334-83.50Q350-92 348-110Q336-208 276.50-253Q217-298 138-288Q74-279 41-233.50Q8-188 22-115Q33-63 58-25.50Q83 12 134 59Q185 106 197 119Q225 149 240 174.50Q255 200 258 235Q259 247 275 251.50Q291 256 306 250.50Q321 245 321 233Z"  horiz-adv-x="426" vert-adv-y="1000"  />

      
      <glyph glyph-name="unic0" unicode="&#xc0;" d="M632 868Q636 862 659 830Q682 798 691 784Q702 767 678 760Q651 752 639 767L573 849Q561 863 586 873Q615 885 630 870Q631 869 632 868M175-10Q106-10 76.50 31.50Q47 73 62 136Q82 220 165 264Q248 308 348 296Q458 564 528 637Q570 679 613 687Q656 695 681 668Q706 641 700 590Q682 451 636 271Q751 281 806 346Q819 360 829 344Q836 330 828 318Q764 230 625 219Q620 198 609.50 153.50Q599 109 592 76Q585 43 582 15Q576-2 538.50-1.50Q501-1 499 16Q508 73 544 217Q538 217 403 234Q354 113 304 52Q254-9 175-10M557 271Q612 486 633 591Q639 624 622.50 629.50Q606 635 583 609Q570 595 557 576.50Q544 558 530.50 532.50Q517 507 507.50 488.50Q498 470 484 436Q470 402 464 387.50Q458 373 443 334Q428 295 425 287Q531 272 557 271M178 50Q198 50 215.50 61Q233 72 245 84.50Q257 97 273.50 128Q290 159 298.50 177.50Q307 196 326 240Q177 245 141 132Q130 100 139.50 75Q149 50 178 50Z"  horiz-adv-x="780" vert-adv-y="1000"  />

      
      <glyph glyph-name="unic1" unicode="&#xc1;" d="M677 868Q689 884 719 875Q745 866 739 853Q738 851 737 849L670 767Q658 752 631 760Q607 767 618 784Q635 811 677 868M175-10Q106-10 76.50 31.50Q47 73 62 136Q82 220 165 264Q248 308 348 296Q458 564 528 637Q570 679 613 687Q656 695 681 668Q706 641 700 590Q682 451 636 271Q751 281 806 346Q819 360 829 344Q836 330 828 318Q764 230 625 219Q620 198 609.50 153.50Q599 109 592 76Q585 43 582 15Q576-2 538.50-1.50Q501-1 499 16Q508 73 544 217Q538 217 403 234Q354 113 304 52Q254-9 175-10M557 271Q612 486 633 591Q639 624 622.50 629.50Q606 635 583 609Q570 595 557 576.50Q544 558 530.50 532.50Q517 507 507.50 488.50Q498 470 484 436Q470 402 464 387.50Q458 373 443 334Q428 295 425 287Q531 272 557 271M178 50Q198 50 215.50 61Q233 72 245 84.50Q257 97 273.50 128Q290 159 298.50 177.50Q307 196 326 240Q177 245 141 132Q130 100 139.50 75Q149 50 178 50Z"  horiz-adv-x="780" vert-adv-y="1000"  />

      
      <glyph glyph-name="unic2" unicode="&#xc2;" d="M654 868Q667 876 684.50 876Q702 876 711 868Q725 857 785 786Q796 774 774 765Q745 756 730 769L678 828L600 764Q582 749 558 762Q536 774 550 789Q551 790 552 791Q605 837 654 868M175-10Q106-10 76.50 31.50Q47 73 62 136Q82 220 165 264Q248 308 348 296Q458 564 528 637Q570 679 613 687Q656 695 681 668Q706 641 700 590Q682 451 636 271Q751 281 806 346Q819 360 829 344Q836 330 828 318Q764 230 625 219Q620 198 609.50 153.50Q599 109 592 76Q585 43 582 15Q576-2 538.50-1.50Q501-1 499 16Q508 73 544 217Q538 217 403 234Q354 113 304 52Q254-9 175-10M557 271Q612 486 633 591Q639 624 622.50 629.50Q606 635 583 609Q570 595 557 576.50Q544 558 530.50 532.50Q517 507 507.50 488.50Q498 470 484 436Q470 402 464 387.50Q458 373 443 334Q428 295 425 287Q531 272 557 271M178 50Q198 50 215.50 61Q233 72 245 84.50Q257 97 273.50 128Q290 159 298.50 177.50Q307 196 326 240Q177 245 141 132Q130 100 139.50 75Q149 50 178 50Z"  horiz-adv-x="780" vert-adv-y="1000"  />

      
      <glyph glyph-name="unic3" unicode="&#xc3;" d="M708 769Q687 770 657 787Q627 804 613 804Q594 804 574 778Q569 774 560 777Q551 780 543.50 788.50Q536 797 540 804Q565 856 616 856Q638 855 667 838Q696 821 711 821Q733 820 751 844Q757 849 765.50 846Q774 843 780 834Q786 825 783 818Q774 797 753.50 782.50Q733 768 708 769M175-10Q106-10 76.50 31.50Q47 73 62 136Q82 220 165 264Q248 308 348 296Q458 564 528 637Q570 679 613 687Q656 695 681 668Q706 641 700 590Q682 451 636 271Q751 281 806 346Q819 360 829 344Q836 330 828 318Q764 230 625 219Q620 198 609.50 153.50Q599 109 592 76Q585 43 582 15Q576-2 538.50-1.50Q501-1 499 16Q508 73 544 217Q538 217 403 234Q354 113 304 52Q254-9 175-10M557 271Q612 486 633 591Q639 624 622.50 629.50Q606 635 583 609Q570 595 557 576.50Q544 558 530.50 532.50Q517 507 507.50 488.50Q498 470 484 436Q470 402 464 387.50Q458 373 443 334Q428 295 425 287Q531 272 557 271M178 50Q198 50 215.50 61Q233 72 245 84.50Q257 97 273.50 128Q290 159 298.50 177.50Q307 196 326 240Q177 245 141 132Q130 100 139.50 75Q149 50 178 50Z"  horiz-adv-x="780" vert-adv-y="1000"  />

      
      <glyph glyph-name="unic4" unicode="&#xc4;" d="M601 761Q582 761 570 774Q558 787 558 805Q560 822 572.50 834.50Q585 847 604 848Q622 848 634.50 835Q647 822 646 804Q645 787 632 774Q619 761 601 761M769 774Q769 774 762.50 767.50Q756 761 737 761Q718 761 706.50 774.50Q695 788 696 805Q697 822 709.50 834.50Q722 847 740 848Q760 848 772 835Q784 822 784 804Q782 787 769 774M175-10Q106-10 76.50 31.50Q47 73 62 136Q82 220 165 264Q248 308 348 296Q458 564 528 637Q570 679 613 687Q656 695 681 668Q706 641 700 590Q682 451 636 271Q751 281 806 346Q819 360 829 344Q836 330 828 318Q764 230 625 219Q620 198 609.50 153.50Q599 109 592 76Q585 43 582 15Q576-2 538.50-1.50Q501-1 499 16Q508 73 544 217Q538 217 403 234Q354 113 304 52Q254-9 175-10M557 271Q612 486 633 591Q639 624 622.50 629.50Q606 635 583 609Q570 595 557 576.50Q544 558 530.50 532.50Q517 507 507.50 488.50Q498 470 484 436Q470 402 464 387.50Q458 373 443 334Q428 295 425 287Q531 272 557 271M178 50Q198 50 215.50 61Q233 72 245 84.50Q257 97 273.50 128Q290 159 298.50 177.50Q307 196 326 240Q177 245 141 132Q130 100 139.50 75Q149 50 178 50Z"  horiz-adv-x="780" vert-adv-y="1000"  />

      
      <glyph glyph-name="unic5" unicode="&#xc5;" d="M677 892Q713 891 734 870Q755 849 751 816Q747 781 721 760Q695 739 659 739Q624 740 603.50 761.50Q583 783 587 817Q591 851 616.50 872Q642 893 677 892M673 852Q640 852 633 816Q631 800 639.50 790Q648 780 663 780Q698 780 705 816Q707 832 698.50 842Q690 852 673 852M175-10Q106-10 76.50 31.50Q47 73 62 136Q82 220 165 264Q248 308 348 296Q458 564 528 637Q570 679 613 687Q656 695 681 668Q706 641 700 590Q682 451 636 271Q751 281 806 346Q819 360 829 344Q836 330 828 318Q764 230 625 219Q620 198 609.50 153.50Q599 109 592 76Q585 43 582 15Q576-2 538.50-1.50Q501-1 499 16Q508 73 544 217Q538 217 403 234Q354 113 304 52Q254-9 175-10M557 271Q612 486 633 591Q639 624 622.50 629.50Q606 635 583 609Q570 595 557 576.50Q544 558 530.50 532.50Q517 507 507.50 488.50Q498 470 484 436Q470 402 464 387.50Q458 373 443 334Q428 295 425 287Q531 272 557 271M178 50Q198 50 215.50 61Q233 72 245 84.50Q257 97 273.50 128Q290 159 298.50 177.50Q307 196 326 240Q177 245 141 132Q130 100 139.50 75Q149 50 178 50Z"  horiz-adv-x="780" vert-adv-y="1000"  />

      
      <glyph glyph-name="unic6" unicode="&#xc6;" d="M772-16Q640-18 586 66Q575 9 572-10Q568-26 531.50-24Q495-22 495-5Q513 101 544 217L403 234Q354 113 304 52Q254-9 175-10Q106-10 76.50 31.50Q47 73 62 136Q82 220 165 264Q248 308 348 296Q458 564 530 638Q571 679 613.50 687Q656 695 680 668Q704 641 698 590Q687 494 653 345Q714 388 796 385Q737 425 731 499.50Q725 574 775 626Q766 675 779 725Q781 732 790.50 734.50Q800 737 808 732.50Q816 728 815 720Q808 686 814 652Q869 686 942 683Q999 680 1031.50 649.50Q1064 619 1063 576Q1061 533 1028.50 503Q996 473 941 472Q894 471 860 493Q826 515 810 549Q787 491 816 442.50Q845 394 908 375Q918 369 911 345.50Q904 322 891 323Q807 345 724.50 314.50Q642 284 625 209Q609 139 656 90.50Q703 42 780 42Q949 44 1023 229Q1027 235 1035 233.50Q1043 232 1050 225.50Q1057 219 1055 213Q963-16 772-16M557 271Q612 486 633 591Q639 624 622.50 629.50Q606 635 583 609Q570 595 557 576.50Q544 558 530.50 532.50Q517 507 507.50 488.50Q498 470 484 436Q470 402 464 387.50Q458 373 443 334Q428 295 425 287Q531 272 557 271M933 528Q961 529 977.50 542Q994 555 995 575Q995 596 976 611Q957 626 924 625Q872 625 839 594Q871 528 933 528M178 50Q198 50 215.50 61Q233 72 245 84.50Q257 97 273.50 128Q290 159 298.50 177.50Q307 196 326 240Q177 245 141 132Q130 100 139.50 75Q149 50 178 50Z"  horiz-adv-x="1022" vert-adv-y="1000"  />

      
      <glyph glyph-name="unic7" unicode="&#xc7;" d="M605 231Q609 235 617 233.50Q625 232 632 225Q639 218 636 212Q591 106 529 53Q467 0 379-8L350-53Q400-57 415.50-90.50Q431-124 409-157Q388-195 343-205Q298-215 237-181Q232-175 233-165.50Q234-156 241.50-148.50Q249-141 257-146Q296-167 321-162Q346-157 357-135Q368-117 357.50-100Q347-83 316-86Q305-88 299-81.50Q293-75 300-62L330-9Q234-2 184.50 76Q135 154 142 273Q152 413 223 527Q171 607 168 676Q167 686 178 690.50Q189 695 201.50 691Q214 687 215 677Q218 635 254 571Q363 705 502 697Q573 693 604 640Q635 587 605 516Q583 461 526.50 432.50Q470 404 400 411.50Q330 419 272 463Q229 368 227 276Q225 164 264 107Q303 50 375 52Q441 53 502.50 94Q564 135 605 231M488 634Q381 640 301 515Q360 467 431.50 475Q503 483 526 532Q548 569 536.50 600.50Q525 632 488 634Z"  horiz-adv-x="603" vert-adv-y="1000"  />

      
      <glyph glyph-name="unic8" unicode="&#xc8;" d="M370 868Q374 862 397 830Q420 798 429 784Q440 767 416 760Q389 752 377 767L311 849Q299 863 324 873Q353 885 368 870Q369 869 370 868M244 744Q242 690 256 654Q303 693 370 698.50Q437 704 486.50 673Q536 642 534 585Q532 541 497 513.50Q462 486 402 490Q317 497 271 552Q253 499 292.50 448.50Q332 398 404 390Q417 385 413 361Q409 337 395 336Q349 340 302 326.50Q255 313 215.50 274Q176 235 171 177Q164 121 198 87Q232 53 287 52Q451 48 531 231Q534 235 542 233.50Q550 232 557 225.50Q564 219 562 212Q471-14 267-9Q185-7 131 44.50Q77 96 85 174Q92 258 151.50 316Q211 374 290 379Q240 396 213.50 439Q187 482 189 532.50Q191 583 221 624Q203 668 206 744Q206 751 215.50 755Q225 759 234.50 756.50Q244 754 244 744M296 601Q338 551 399 548Q427 546 442 557.50Q457 569 458 588Q458 618 427.50 631Q397 644 358 636Q319 628 296 601Z"  horiz-adv-x="529" vert-adv-y="1000"  />

      
      <glyph glyph-name="unic9" unicode="&#xc9;" d="M415 868Q427 884 457 875Q483 866 477 853Q476 851 475 849L408 767Q396 752 369 760Q345 767 356 784Q373 811 415 868M244 744Q242 690 256 654Q303 693 370 698.50Q437 704 486.50 673Q536 642 534 585Q532 541 497 513.50Q462 486 402 490Q317 497 271 552Q253 499 292.50 448.50Q332 398 404 390Q417 385 413 361Q409 337 395 336Q349 340 302 326.50Q255 313 215.50 274Q176 235 171 177Q164 121 198 87Q232 53 287 52Q451 48 531 231Q534 235 542 233.50Q550 232 557 225.50Q564 219 562 212Q471-14 267-9Q185-7 131 44.50Q77 96 85 174Q92 258 151.50 316Q211 374 290 379Q240 396 213.50 439Q187 482 189 532.50Q191 583 221 624Q203 668 206 744Q206 751 215.50 755Q225 759 234.50 756.50Q244 754 244 744M296 601Q338 551 399 548Q427 546 442 557.50Q457 569 458 588Q458 618 427.50 631Q397 644 358 636Q319 628 296 601Z"  horiz-adv-x="529" vert-adv-y="1000"  />

      
      <glyph glyph-name="unica" unicode="&#xca;" d="M392 868Q405 876 422.50 876Q440 876 449 868Q463 857 523 786Q534 774 512 765Q483 756 468 769L416 828L338 764Q320 749 296 762Q274 774 288 789Q289 790 290 791Q343 837 392 868M244 744Q242 690 256 654Q303 693 370 698.50Q437 704 486.50 673Q536 642 534 585Q532 541 497 513.50Q462 486 402 490Q317 497 271 552Q253 499 292.50 448.50Q332 398 404 390Q417 385 413 361Q409 337 395 336Q349 340 302 326.50Q255 313 215.50 274Q176 235 171 177Q164 121 198 87Q232 53 287 52Q451 48 531 231Q534 235 542 233.50Q550 232 557 225.50Q564 219 562 212Q471-14 267-9Q185-7 131 44.50Q77 96 85 174Q92 258 151.50 316Q211 374 290 379Q240 396 213.50 439Q187 482 189 532.50Q191 583 221 624Q203 668 206 744Q206 751 215.50 755Q225 759 234.50 756.50Q244 754 244 744M296 601Q338 551 399 548Q427 546 442 557.50Q457 569 458 588Q458 618 427.50 631Q397 644 358 636Q319 628 296 601Z"  horiz-adv-x="529" vert-adv-y="1000"  />

      
      <glyph glyph-name="unicb" unicode="&#xcb;" d="M339 761Q320 761 308 774Q296 787 296 805Q298 822 310.50 834.50Q323 847 342 848Q360 848 372.50 835Q385 822 384 804Q383 787 370 774Q357 761 339 761M507 774Q507 774 500.50 767.50Q494 761 475 761Q456 761 444.50 774.50Q433 788 434 805Q435 822 447.50 834.50Q460 847 478 848Q498 848 510 835Q522 822 522 804Q520 787 507 774M244 744Q242 690 256 654Q303 693 370 698.50Q437 704 486.50 673Q536 642 534 585Q532 541 497 513.50Q462 486 402 490Q317 497 271 552Q253 499 292.50 448.50Q332 398 404 390Q417 385 413 361Q409 337 395 336Q349 340 302 326.50Q255 313 215.50 274Q176 235 171 177Q164 121 198 87Q232 53 287 52Q451 48 531 231Q534 235 542 233.50Q550 232 557 225.50Q564 219 562 212Q471-14 267-9Q185-7 131 44.50Q77 96 85 174Q92 258 151.50 316Q211 374 290 379Q240 396 213.50 439Q187 482 189 532.50Q191 583 221 624Q203 668 206 744Q206 751 215.50 755Q225 759 234.50 756.50Q244 754 244 744M296 601Q338 551 399 548Q427 546 442 557.50Q457 569 458 588Q458 618 427.50 631Q397 644 358 636Q319 628 296 601Z"  horiz-adv-x="529" vert-adv-y="1000"  />

      
      <glyph glyph-name="unicc" unicode="&#xcc;" d="M496 869Q500 863 523 831Q546 799 555 785Q566 768 542 761Q515 753 503 768L437 850Q425 864 450 874Q479 886 494 871Q495 870 496 869M468 676Q476 691 497 694.50Q518 698 535 690Q552 682 552 670Q520 568 437 269Q421 209 408.50 172Q396 135 377.50 96Q359 57 338 36.50Q317 16 286.50 2.50Q256-11 217-11Q147-11 108 32Q69 75 77 134Q85 193 138 236Q151 246 170.50 232Q190 218 185 204Q159 169 155.50 133Q152 97 172 74Q192 51 229 51Q248 51 264.50 62.50Q281 74 292.50 90.50Q304 107 315 135.50Q326 164 333.50 187.50Q341 211 351 248Q353 255 354 259Q447 598 448 601Q417 567 373 539.50Q329 512 296 498.50Q263 485 236.50 464Q210 443 204 417Q188 353 245 345Q259 340 255 317.50Q251 295 233 296Q167 298 138.50 337.50Q110 377 121 425Q131 471 171.50 501Q212 531 259.50 546Q307 561 367.50 594.50Q428 628 468 676Z"  horiz-adv-x="520" vert-adv-y="1000"  />

      
      <glyph glyph-name="unicd" unicode="&#xcd;" d="M541 869Q553 885 583 876Q609 867 603 854Q602 852 601 850L534 768Q522 753 495 761Q471 768 482 785Q499 812 541 869M468 676Q476 691 497 694.50Q518 698 535 690Q552 682 552 670Q520 568 437 269Q421 209 408.50 172Q396 135 377.50 96Q359 57 338 36.50Q317 16 286.50 2.50Q256-11 217-11Q147-11 108 32Q69 75 77 134Q85 193 138 236Q151 246 170.50 232Q190 218 185 204Q159 169 155.50 133Q152 97 172 74Q192 51 229 51Q248 51 264.50 62.50Q281 74 292.50 90.50Q304 107 315 135.50Q326 164 333.50 187.50Q341 211 351 248Q353 255 354 259Q447 598 448 601Q417 567 373 539.50Q329 512 296 498.50Q263 485 236.50 464Q210 443 204 417Q188 353 245 345Q259 340 255 317.50Q251 295 233 296Q167 298 138.50 337.50Q110 377 121 425Q131 471 171.50 501Q212 531 259.50 546Q307 561 367.50 594.50Q428 628 468 676Z"  horiz-adv-x="520" vert-adv-y="1000"  />

      
      <glyph glyph-name="unice" unicode="&#xce;" d="M518 869Q531 877 548.50 877Q566 877 575 869Q589 858 649 787Q660 775 638 766Q609 757 594 770L542 829L464 765Q446 750 422 763Q400 775 414 790Q415 791 416 792Q469 838 518 869M468 676Q476 691 497 694.50Q518 698 535 690Q552 682 552 670Q520 568 437 269Q421 209 408.50 172Q396 135 377.50 96Q359 57 338 36.50Q317 16 286.50 2.50Q256-11 217-11Q147-11 108 32Q69 75 77 134Q85 193 138 236Q151 246 170.50 232Q190 218 185 204Q159 169 155.50 133Q152 97 172 74Q192 51 229 51Q248 51 264.50 62.50Q281 74 292.50 90.50Q304 107 315 135.50Q326 164 333.50 187.50Q341 211 351 248Q353 255 354 259Q447 598 448 601Q417 567 373 539.50Q329 512 296 498.50Q263 485 236.50 464Q210 443 204 417Q188 353 245 345Q259 340 255 317.50Q251 295 233 296Q167 298 138.50 337.50Q110 377 121 425Q131 471 171.50 501Q212 531 259.50 546Q307 561 367.50 594.50Q428 628 468 676Z"  horiz-adv-x="520" vert-adv-y="1000"  />

      
      <glyph glyph-name="unicf" unicode="&#xcf;" d="M465 762Q446 762 434 775Q422 788 422 806Q424 823 436.50 835.50Q449 848 468 849Q486 849 498.50 836Q511 823 510 805Q509 788 496 775Q483 762 465 762M633 775Q633 775 626.50 768.50Q620 762 601 762Q582 762 570.50 775.50Q559 789 560 806Q561 823 573.50 835.50Q586 848 604 849Q624 849 636 836Q648 823 648 805Q646 788 633 775M468 676Q476 691 497 694.50Q518 698 535 690Q552 682 552 670Q520 568 437 269Q421 209 408.50 172Q396 135 377.50 96Q359 57 338 36.50Q317 16 286.50 2.50Q256-11 217-11Q147-11 108 32Q69 75 77 134Q85 193 138 236Q151 246 170.50 232Q190 218 185 204Q159 169 155.50 133Q152 97 172 74Q192 51 229 51Q248 51 264.50 62.50Q281 74 292.50 90.50Q304 107 315 135.50Q326 164 333.50 187.50Q341 211 351 248Q353 255 354 259Q447 598 448 601Q417 567 373 539.50Q329 512 296 498.50Q263 485 236.50 464Q210 443 204 417Q188 353 245 345Q259 340 255 317.50Q251 295 233 296Q167 298 138.50 337.50Q110 377 121 425Q131 471 171.50 501Q212 531 259.50 546Q307 561 367.50 594.50Q428 628 468 676Z"  horiz-adv-x="520" vert-adv-y="1000"  />

      
      <glyph glyph-name="unid0" unicode="&#xd0;" d="M198-10Q132-11 98 19.50Q64 50 68 95Q73 148 112.50 173.50Q152 199 204 192.50Q256 186 301 154Q312 178 331 244L269 244Q254 246 254.50 266.50Q255 287 272 289L343 289Q405 527 471 576Q484 583 498.50 580.50Q513 578 523 569Q533 560 529 552Q474 496 418 287Q436 288 472 288Q508 288 524 288Q533 287 534.50 276.50Q536 266 530.50 255Q525 244 516 243Q500 243 482.50 243Q465 243 442 243Q419 243 405 243Q380 147 359 114Q389 88 436 70.50Q483 53 524 53Q582 54 625.50 98.50Q669 143 690 212Q711 281 712 363Q714 483 654.50 559.50Q595 636 473 636Q420 636 372.50 612Q325 588 299.50 551Q274 514 269 469.50Q264 425 296 383Q304 370 282.50 352.50Q261 335 243 347Q188 397 188 466.50Q188 536 236 594Q277 644 343.50 671.50Q410 699 487 697Q629 693 713 600Q797 507 794 363Q791 205 717 95Q643-15 517-9Q408-4 331 62Q280-8 198-10M197 47Q223 47 241 61.50Q259 76 281 106Q237 137 202 140Q166 143 148.50 120Q131 97 144.50 72Q158 47 197 47Z"  horiz-adv-x="859" vert-adv-y="1000"  />

      
      <glyph glyph-name="unid1" unicode="&#xd1;" d="M740 769Q719 770 689 787Q659 804 645 804Q626 804 606 778Q601 774 592 777Q583 780 575.50 788.50Q568 797 572 804Q597 856 648 856Q670 855 699 838Q728 821 743 821Q765 820 783 844Q789 849 797.50 846Q806 843 812 834Q818 825 815 818Q806 797 785.50 782.50Q765 768 740 769M742 697Q774 697 796.50 686Q819 675 830.50 659.50Q842 644 846.50 618.50Q851 593 850.50 572.50Q850 552 844 521.50Q838 491 834 475.50Q830 460 823 435Q820 425 819 421Q812 396 801 357.50Q790 319 782.50 293Q775 267 766 232.50Q757 198 752.50 173.50Q748 149 744 120.50Q740 92 742 71.50Q744 51 749 31.50Q754 12 765.50-2Q777-16 794-24Q803-32 801-47.50Q799-63 783.50-76.50Q768-90 751-85Q728-77 711-63.50Q694-50 684-30.50Q674-11 667 8.50Q660 28 660 57.50Q660 87 660.50 110.50Q661 134 668.50 171.50Q676 209 681.50 234Q687 259 699 302.50Q711 346 718.50 371Q726 396 740 442Q750 475 756 504Q762 533 764 564.50Q766 596 753.50 614.50Q741 633 715 633Q657 633 575.50 535Q494 437 441 326Q431 292 410 217.50Q389 143 372.50 90Q356 37 344 9Q339-3 318-7.50Q297-12 278.50-6.50Q260-1 262 12Q288 86 316 181Q344 276 383.50 416Q423 556 435 597Q404 564 360 537Q316 510 284 497Q252 484 225.50 463.50Q199 443 194 417Q181 354 236 345Q245 344 247 331Q249 318 242.50 306.50Q236 295 224 296Q158 298 129.50 338Q101 378 112 425Q120 463 147.50 488.50Q175 514 213.50 530.50Q252 547 293.50 563Q335 579 381 608Q427 637 460 677Q466 693 484.50 696Q503 699 518.50 690.50Q534 682 533 669Q511 588 478 472Q612 698 742 697Z"  horiz-adv-x="888" vert-adv-y="1000"  />

      
      <glyph glyph-name="unid2" unicode="&#xd2;" d="M430 869Q434 863 457 831Q480 799 489 785Q500 768 476 761Q449 753 437 768L371 850Q359 864 384 874Q413 886 428 871Q429 870 430 869M444 696Q506 689 547 657Q588 625 604.50 581.50Q621 538 624 482.50Q627 427 620 380.50Q613 334 601 289Q675 301 740 339Q749 344 750 329Q752 305 739 296Q664 250 585 239Q546 131 473 60Q400-11 304-10Q189-9 139 77Q103 139 111 238Q119 337 168 411Q181 424 206 407.50Q231 391 223 373Q201 330 191.50 276Q182 222 187 172Q192 122 222 87Q252 52 304 50Q371 48 420.50 101Q470 154 501 239Q370 249 289 343.50Q208 438 231 554Q246 631 307 667.50Q368 704 444 696M439 633Q334 645 312 545Q292 456 352 379Q412 302 518 292Q530 333 535.50 384.50Q541 436 538.50 492.50Q536 549 510.50 588.50Q485 628 439 633Z"  horiz-adv-x="711" vert-adv-y="1000"  />

      
      <glyph glyph-name="unid3" unicode="&#xd3;" d="M474 869Q486 885 516 876Q542 867 536 854Q535 852 534 850L467 768Q455 753 428 761Q404 768 415 785Q432 812 474 869M444 696Q506 689 547 657Q588 625 604.50 581.50Q621 538 624 482.50Q627 427 620 380.50Q613 334 601 289Q675 301 740 339Q749 344 750 329Q752 305 739 296Q664 250 585 239Q546 131 473 60Q400-11 304-10Q189-9 139 77Q103 139 111 238Q119 337 168 411Q181 424 206 407.50Q231 391 223 373Q201 330 191.50 276Q182 222 187 172Q192 122 222 87Q252 52 304 50Q371 48 420.50 101Q470 154 501 239Q370 249 289 343.50Q208 438 231 554Q246 631 307 667.50Q368 704 444 696M439 633Q334 645 312 545Q292 456 352 379Q412 302 518 292Q530 333 535.50 384.50Q541 436 538.50 492.50Q536 549 510.50 588.50Q485 628 439 633Z"  horiz-adv-x="711" vert-adv-y="1000"  />

      
      <glyph glyph-name="unid4" unicode="&#xd4;" d="M452 869Q465 877 482.50 877Q500 877 509 869Q523 858 583 787Q594 775 572 766Q543 757 528 770L476 829L398 765Q380 750 356 763Q334 775 348 790Q349 791 350 792Q403 838 452 869M444 696Q506 689 547 657Q588 625 604.50 581.50Q621 538 624 482.50Q627 427 620 380.50Q613 334 601 289Q675 301 740 339Q749 344 750 329Q752 305 739 296Q664 250 585 239Q546 131 473 60Q400-11 304-10Q189-9 139 77Q103 139 111 238Q119 337 168 411Q181 424 206 407.50Q231 391 223 373Q201 330 191.50 276Q182 222 187 172Q192 122 222 87Q252 52 304 50Q371 48 420.50 101Q470 154 501 239Q370 249 289 343.50Q208 438 231 554Q246 631 307 667.50Q368 704 444 696M439 633Q334 645 312 545Q292 456 352 379Q412 302 518 292Q530 333 535.50 384.50Q541 436 538.50 492.50Q536 549 510.50 588.50Q485 628 439 633Z"  horiz-adv-x="711" vert-adv-y="1000"  />

      
      <glyph glyph-name="unid5" unicode="&#xd5;" d="M506 770Q485 771 455 788Q425 805 411 805Q392 805 372 779Q367 775 358 778Q349 781 341.50 789.50Q334 798 338 805Q363 857 414 857Q436 856 465 839Q494 822 509 822Q531 821 549 845Q555 850 563.50 847Q572 844 578 835Q584 826 581 819Q572 798 551.50 783.50Q531 769 506 770M444 696Q506 689 547 657Q588 625 604.50 581.50Q621 538 624 482.50Q627 427 620 380.50Q613 334 601 289Q675 301 740 339Q749 344 750 329Q752 305 739 296Q664 250 585 239Q546 131 473 60Q400-11 304-10Q189-9 139 77Q103 139 111 238Q119 337 168 411Q181 424 206 407.50Q231 391 223 373Q201 330 191.50 276Q182 222 187 172Q192 122 222 87Q252 52 304 50Q371 48 420.50 101Q470 154 501 239Q370 249 289 343.50Q208 438 231 554Q246 631 307 667.50Q368 704 444 696M439 633Q334 645 312 545Q292 456 352 379Q412 302 518 292Q530 333 535.50 384.50Q541 436 538.50 492.50Q536 549 510.50 588.50Q485 628 439 633Z"  horiz-adv-x="711" vert-adv-y="1000"  />

      
      <glyph glyph-name="unid6" unicode="&#xd6;" d="M398 762Q379 762 367 775Q355 788 355 806Q357 823 369.50 835.50Q382 848 401 849Q419 849 431.50 836Q444 823 443 805Q442 788 429 775Q416 762 398 762M566 775Q566 775 559.50 768.50Q553 762 534 762Q515 762 503.50 775.50Q492 789 493 806Q494 823 506.50 835.50Q519 848 537 849Q557 849 569 836Q581 823 581 805Q579 788 566 775M444 696Q506 689 547 657Q588 625 604.50 581.50Q621 538 624 482.50Q627 427 620 380.50Q613 334 601 289Q675 301 740 339Q749 344 750 329Q752 305 739 296Q664 250 585 239Q546 131 473 60Q400-11 304-10Q189-9 139 77Q103 139 111 238Q119 337 168 411Q181 424 206 407.50Q231 391 223 373Q201 330 191.50 276Q182 222 187 172Q192 122 222 87Q252 52 304 50Q371 48 420.50 101Q470 154 501 239Q370 249 289 343.50Q208 438 231 554Q246 631 307 667.50Q368 704 444 696M439 633Q334 645 312 545Q292 456 352 379Q412 302 518 292Q530 333 535.50 384.50Q541 436 538.50 492.50Q536 549 510.50 588.50Q485 628 439 633Z"  horiz-adv-x="711" vert-adv-y="1000"  />

      
      <glyph glyph-name="unid7" unicode="&#xd7;" d="M145 165Q137 160 123 169Q109 178 103.50 190Q98 202 105 210L225 292L148 357Q139 365 146.50 378.50Q154 392 167 397.50Q180 403 192 395L274 326L393 406Q405 413 420 404.50Q435 396 439 382.50Q443 369 435 360L322 284L398 220Q408 211 401 197.50Q394 184 380.50 179Q367 174 355 182L273 252L145 165Z"  horiz-adv-x="529" vert-adv-y="1000"  />

      
      </font>
</defs>
</svg>
